<svg width="48" height="49" viewBox="0 0 48 49" fill="none" xmlns="http://www.w3.org/2000/svg">
<path d="M34 4.28418H14C8.47715 4.28418 4 8.76133 4 14.2842V34.2842C4 39.807 8.47715 44.2842 14 44.2842H34C39.5228 44.2842 44 39.807 44 34.2842V14.2842C44 8.76133 39.5228 4.28418 34 4.28418Z" stroke="white" stroke-width="2" stroke-linecap="round" stroke-linejoin="round"/>
<path d="M32 23.024C32.2468 24.6885 31.9625 26.3885 31.1875 27.8821C30.4125 29.3757 29.1863 30.5869 27.6832 31.3434C26.1802 32.0999 24.4769 32.3632 22.8156 32.0959C21.1542 31.8286 19.6195 31.0442 18.4297 29.8544C17.2398 28.6645 16.4555 27.1298 16.1881 25.4685C15.9208 23.8072 16.1841 22.1038 16.9406 20.6008C17.6972 19.0978 18.9084 17.8715 20.402 17.0965C21.8956 16.3215 23.5955 16.0372 25.26 16.2841C26.9578 16.5358 28.5297 17.327 29.7434 18.5407C30.9571 19.7543 31.7482 21.3262 32 23.024Z" stroke="white" stroke-width="2" stroke-linecap="round" stroke-linejoin="round"/>
<path d="M35 13.2842H35.02" stroke="white" stroke-width="2" stroke-linecap="round" stroke-linejoin="round"/>
</svg>
