<svg width="48" height="49" viewBox="0 0 48 49" fill="none" xmlns="http://www.w3.org/2000/svg">
<path d="M32 16.2842C35.1826 16.2842 38.2348 17.5485 40.4853 19.7989C42.7357 22.0493 44 25.1016 44 28.2842V42.2842H36V28.2842C36 27.2233 35.5786 26.2059 34.8284 25.4558C34.0783 24.7056 33.0609 24.2842 32 24.2842C30.9391 24.2842 29.9217 24.7056 29.1716 25.4558C28.4214 26.2059 28 27.2233 28 28.2842V42.2842H20V28.2842C20 25.1016 21.2643 22.0493 23.5147 19.7989C25.7652 17.5485 28.8174 16.2842 32 16.2842V16.2842Z" stroke="white" stroke-width="2" stroke-linecap="round" stroke-linejoin="round"/>
<path d="M12 18.2842H4V42.2842H12V18.2842Z" stroke="white" stroke-width="2" stroke-linecap="round" stroke-linejoin="round"/>
<path d="M8 12.2842C10.2091 12.2842 12 10.4933 12 8.28418C12 6.07504 10.2091 4.28418 8 4.28418C5.79086 4.28418 4 6.07504 4 8.28418C4 10.4933 5.79086 12.2842 8 12.2842Z" stroke="white" stroke-width="2" stroke-linecap="round" stroke-linejoin="round"/>
</svg>
