<svg width="140" height="160" viewBox="0 0 140 160" fill="none" xmlns="http://www.w3.org/2000/svg">
<rect width="140" height="160" fill="#0F98AC"/>
<g clip-path="url(#clip0)">
<path d="M59.2865 22.6445C57.4818 25.9823 55.9779 30.0249 54.9662 34.3024C54.7474 35.2421 54.556 36.0252 54.5378 36.0349C54.5196 36.0545 54.1823 35.8098 53.7813 35.5064C51.2474 33.5095 48.3855 31.6889 45.5508 30.2598C44.4935 29.7214 41.2487 28.4196 41.1758 28.4881C41.0938 28.5762 40.6016 31.6498 40.474 32.8439C40.1732 35.7413 40.2097 40.5767 40.5651 43.6796C40.6198 44.2376 40.6654 44.6878 40.6472 44.6878C40.6381 44.6878 40.2644 44.5802 39.8269 44.4333C36.9649 43.5426 33.9935 42.9064 31.1224 42.5834C29.5092 42.4072 25.6719 42.3778 25.6719 42.5442C25.6719 42.6029 25.7722 43.3175 25.8998 44.1397C26.4831 47.8495 27.6954 51.8236 29.5092 55.9836C29.9102 56.9037 30.2657 57.7064 30.2839 57.7651C30.3204 57.8434 30.0196 57.9021 29.3451 57.9413C26.2279 58.1566 22.6732 58.7929 19.7748 59.664C18.5352 60.036 15.7735 61.0736 15.6185 61.2302C15.573 61.2693 15.8737 61.9349 16.2839 62.7082C18.1068 66.1537 20.3763 69.2664 23.4662 72.5651L24.8698 74.0529L24.3868 74.2683C20.5222 75.991 16.1198 78.859 13.1667 81.5802L12.0092 82.6471L13.1941 83.7434C18.198 88.3635 25.6628 92.2201 32.8177 93.8744C36.6185 94.7553 41.3217 95.186 44.0834 94.9119C53.0977 94.0212 61.8112 90.1548 69.0118 83.8609C69.4128 83.5085 69.8047 83.1561 69.8776 83.068C70.0326 82.9016 70.1875 82.8037 68.4467 84.0468C59.569 90.4484 48.9414 93.3458 39.7357 91.8677C34.4766 91.0259 29.1263 88.9312 24.3047 85.8185C22.8737 84.8984 20.03 82.7939 20.0209 82.6569C20.0209 82.559 22.181 80.9048 23.3659 80.1119C24.6784 79.2212 26.4193 78.1836 27.6133 77.5669L28.4154 77.1558L28.7982 77.4593C29.5638 78.0759 31.7605 79.6127 32.7357 80.2392C37.9219 83.5183 42.1784 85.055 48.2761 85.8577C49.9349 86.073 54.7383 86.1513 56.543 86.0045C59.5052 85.75 62.4401 85.2214 65.1381 84.4677C66.3868 84.1154 69.7318 82.9603 69.668 82.9016C69.6498 82.882 69.0847 83.0191 68.4011 83.205C64.2995 84.3111 60.28 84.7908 55.9779 84.6929C49.7891 84.546 44.5756 83.254 39.6628 80.6503C37.4844 79.4953 34.9961 77.7921 33.0547 76.1378L32.28 75.482L33.3737 75.1003C35.6342 74.3074 38.3503 73.6614 40.7748 73.3286L41.8868 73.172L42.698 73.7984C45.9701 76.3336 50.181 78.5947 54.4558 80.1119C57.7735 81.2963 61.4467 82.1185 64.9558 82.4709C66.3868 82.608 70.0326 82.696 69.0118 82.559C68.6107 82.5101 67.6446 82.3828 66.8698 82.2654C60.3894 81.355 53.8177 78.8199 48.6498 75.2569C47.4193 74.4151 45.7969 73.1328 45.8972 73.0937C46.0977 73.0251 49.224 73.3971 50.7552 73.6712C52.4961 73.9844 54.6198 74.5228 56.306 75.0709C57.2448 75.3744 57.4727 75.5016 58.3568 76.1672C61.1732 78.2815 64.6641 80.3077 67.7357 81.6193C68.9297 82.1283 69.8321 82.4807 69.7774 82.4318C69.75 82.4024 68.9571 81.9619 68 81.4529C67.0521 80.9439 65.7852 80.2196 65.1836 79.8281C63.8529 78.9863 61.3008 77.1558 61.3646 77.0971C61.3829 77.0677 62.3581 77.5669 63.5248 78.1934C65.5938 79.3093 67.7904 80.6992 69.2396 81.8053C69.6407 82.1087 69.9688 82.3143 69.9688 82.2654C69.9688 82.2066 70.0052 82.1871 70.0508 82.2164C70.0873 82.2458 69.8321 81.5508 69.4675 80.6796C68.4649 78.2619 67.5899 75.6191 66.9701 73.1328C66.8607 72.7119 66.7878 72.3498 66.806 72.3302C66.8607 72.2714 67.7266 74.2878 68.2735 75.7463C68.8659 77.3418 69.3217 78.7513 69.8412 80.6601L70.2422 82.1283L70.1693 81.1005C70.0052 78.5556 70.142 70.9696 70.3425 71.7233C70.5886 72.6923 70.6706 78.5556 70.4701 81.3942L70.4245 82.0304L70.7253 80.9048C71.418 78.3696 72.3842 75.5212 73.2045 73.6124C73.3868 73.1818 73.6055 72.6826 73.6784 72.4966C73.961 71.8016 73.8698 72.3302 73.4414 73.9648C72.7579 76.5294 71.8829 79.0939 70.9623 81.1886C70.7162 81.7466 70.543 82.2458 70.5886 82.2947C70.625 82.3339 70.9167 82.1773 71.2357 81.9228C73.1589 80.4154 77.1875 77.9585 79.0378 77.146L79.4024 76.9894L79.1745 77.1852C78.7735 77.5278 76.1576 79.3876 75.3008 79.9259C74.8542 80.2196 73.6784 80.8852 72.7032 81.4236C70.7526 82.4905 70.7526 82.5199 72.7032 81.6878C76.2852 80.1609 80.0131 77.9683 82.8933 75.6876C83.431 75.2667 84.7253 74.8066 87.0586 74.1998C89.4649 73.5733 93.0287 73.0251 94.2592 73.0937L94.7969 73.123L93.53 74.0627C87.4779 78.5556 80.1133 81.5214 72.8855 82.373C72.3568 82.4416 71.7006 82.5199 71.4271 82.5688C70.9532 82.6373 70.9623 82.6471 71.7461 82.6569C72.9584 82.6667 75.4649 82.4905 77.1329 82.2751C84.6797 81.2865 92.0079 78.3011 97.8776 73.8474C98.8985 73.0643 98.8256 73.0741 100.703 73.3677C102.945 73.7103 105.124 74.2585 107.43 75.0513L108.378 75.3841L107.703 75.9617C104.221 78.9373 99.7279 81.5606 96.1094 82.7156C92.1355 83.9783 88.7995 84.5167 84.3698 84.595C79.694 84.6831 76.3034 84.2818 72.1381 83.1561C71.5547 82.9897 71.0443 82.8624 70.9987 82.8722C70.9623 82.8722 71.3177 83.0289 71.7917 83.205C81.8177 87.0812 93.7761 87.0421 102.663 83.1267C105.616 81.8249 109.016 79.7595 111.595 77.7138C111.96 77.4201 112.297 77.1852 112.352 77.1852C112.561 77.1852 115.378 78.8003 116.681 79.6617C118.458 80.8363 120.673 82.5394 120.6 82.6765C120.454 82.9212 117.392 85.1431 115.997 86.0143C109.681 89.9394 102.481 92.1712 96.1276 92.1908C88.2709 92.2103 79.4024 89.1759 72.2201 84.0273C71.4818 83.4987 70.8985 83.1072 70.9258 83.1561C70.9532 83.205 71.4545 83.6651 72.0469 84.1643C78.8829 90.0569 86.931 93.6688 95.8086 94.8238C97.267 95.0098 101.369 94.9804 103.1 94.7651C110.438 93.8548 117.547 91.0749 123.836 86.631C125.513 85.4564 126.133 84.9474 127.582 83.6162C128.421 82.8527 128.639 82.5982 128.548 82.5199C127.71 81.7074 126.342 80.5035 125.65 79.9553C122.979 77.8214 119.434 75.6876 116.143 74.2095L115.797 74.0529L117.191 72.5553C119.279 70.3236 121.102 68.0135 122.733 65.5175C123.581 64.2254 125.139 61.3183 125.039 61.2106C125.003 61.1812 124.365 60.8974 123.608 60.5939C120.154 59.204 115.697 58.2447 111.331 57.9413C110.784 57.9119 110.346 57.8728 110.346 57.8532C110.346 57.8434 110.62 57.2267 110.948 56.473C112.434 53.1254 113.71 49.3177 114.348 46.3421C114.612 45.1087 115.013 42.5148 114.949 42.4463C114.822 42.3191 110.82 42.4072 109.481 42.5736C106.646 42.9162 103.966 43.4741 101.478 44.2474C100.694 44.4921 100.038 44.6878 100.02 44.6878C100.01 44.6878 100.047 44.218 100.111 43.6307C100.448 40.4005 100.484 35.9958 100.184 33.0103C100.074 31.8455 99.5547 28.5566 99.4727 28.4783C99.4271 28.4196 96.4649 29.5844 95.6172 29.9857C92.8099 31.3169 89.4649 33.4312 86.9766 35.4281C86.53 35.7902 86.1563 36.0643 86.1381 36.0447C86.1198 36.0349 85.9467 35.34 85.7461 34.508C84.6797 30.0543 83.0391 25.6691 81.1888 22.3508L80.4414 21L79.1927 22.1061C76.4219 24.5532 73.5235 28.0476 71.1719 31.7868C70.7435 32.4818 70.3698 33.0397 70.3334 33.0397C70.2969 33.0397 69.9141 32.4622 69.4766 31.7672C67.2891 28.2728 64.2631 24.6217 61.5834 22.2334C60.9089 21.6265 60.3164 21.1077 60.2618 21.0783C60.2162 21.049 59.7696 21.7537 59.2865 22.6445ZM79.7123 30.808C80.7787 33.2159 81.5352 35.3302 82.2644 37.9241L82.6381 39.2357L81.4714 40.518C79.9219 42.2212 78.4727 44.0222 77.3698 45.5982C76.8685 46.3029 76.4037 46.9881 76.3399 47.1056C76.267 47.2328 76.1849 47.3307 76.1576 47.3307C76.1302 47.3307 76.0573 47.0762 75.9935 46.763C75.8112 45.8624 74.681 42.2995 74.1342 40.9095C73.8516 40.2048 73.3959 39.1378 73.1224 38.5212C72.8399 37.9143 72.612 37.3857 72.612 37.3368C72.612 37.2095 74.1706 34.9974 75.073 33.8619C75.793 32.9516 78.9649 29.418 79.0651 29.418C79.0834 29.418 79.375 30.0445 79.7123 30.808ZM63.1784 31.1016C64.7279 32.7852 66.0313 34.4101 67.3073 36.2503L68.073 37.3564L67.4349 38.8442C66.3685 41.3402 65.4662 43.9244 64.8099 46.391C64.573 47.3209 64.5547 47.3503 64.4271 47.1447C64.0625 46.5672 62.6133 44.5312 61.9388 43.6601C61.5196 43.1217 60.4623 41.8982 59.5873 40.9487L58.0013 39.2162L58.1654 38.5995C58.4844 37.3662 59.2227 35.0561 59.724 33.7445C60.3802 31.9923 61.4922 29.5159 61.6198 29.5159C61.6745 29.5159 62.3763 30.2304 63.1784 31.1016ZM46.1706 36.3188C48.3581 37.3564 50.5 38.6191 52.5235 40.0384L53.8086 40.9389L53.7357 41.6143C53.4714 44.1397 53.3985 47.6929 53.5717 50.1106C53.6172 50.8545 53.6446 51.481 53.6263 51.5103C53.599 51.5299 53.198 51.2656 52.724 50.923C50.9193 49.582 47.8659 47.7614 45.6693 46.7238L44.931 46.3714L44.8763 45.8527C44.7487 44.6585 44.7032 41.5066 44.8034 39.8916C44.931 37.6696 45.1042 35.8783 45.1862 35.8783C45.2136 35.8783 45.6602 36.0741 46.1706 36.3188ZM95.5261 36.0937C95.7631 37.2976 95.9362 43.3371 95.7904 45.373C95.7266 46.3323 95.6993 46.4008 95.4896 46.5085C95.362 46.577 94.4597 47.0468 93.4844 47.5656C91.5248 48.5836 89.7292 49.6897 88.0704 50.8839C87.1498 51.5397 86.9948 51.6278 87.0404 51.432C87.0677 51.3048 87.1407 50.2476 87.1954 49.0926C87.2865 46.9587 87.2136 44.0027 87.0131 42.1429C86.8672 40.7627 86.8034 40.9095 87.9063 40.1363C89.8842 38.7561 92.0079 37.5032 93.9857 36.5439C94.7422 36.1818 95.3802 35.8881 95.4167 35.8783C95.4532 35.8783 95.5079 35.9762 95.5261 36.0937ZM71.3815 43.4643C72.3568 45.5884 73.0495 47.4384 73.6602 49.5037L74.0795 50.9328L73.7513 51.6278C72.7032 53.8693 71.3998 57.8042 70.78 60.5841C70.3334 62.5614 70.3151 62.6201 70.2696 62.3558C69.6133 58.9201 68.3008 54.7503 66.9519 51.804C66.5052 50.8349 66.5052 50.8545 67.198 48.6423C67.9089 46.3323 68.9206 43.8363 69.9506 41.859C70.2513 41.2815 70.2787 41.2521 70.3972 41.4185C70.4701 41.5262 70.9076 42.4365 71.3815 43.4643ZM83.668 44.9032C84.0144 47.6733 84.142 50.5804 84.0235 52.7339L83.9414 54.1728L82.7019 55.5431C80.7422 57.7259 79.0378 60.0164 77.4427 62.6005C76.8321 63.5892 76.6954 63.7556 76.7409 63.4815C76.7774 63.2955 76.8685 62.4537 76.9597 61.6217C77.1511 59.7619 77.1875 54.1532 77.0052 52.4794L76.8959 51.4222L77.2331 50.9132C78.3269 49.2884 79.5118 47.8299 81.3256 45.882C82.4467 44.6878 83.4037 43.709 83.4401 43.709C83.4857 43.709 83.5951 44.2474 83.668 44.9032ZM58.1927 44.7759C60.0612 46.6357 61.5013 48.3291 62.9232 50.3357L63.7344 51.4908L63.625 52.7632C63.3881 55.4159 63.5065 60.7701 63.862 63.1291C63.9076 63.4521 63.9349 63.7262 63.9258 63.7458C63.9076 63.7556 63.5704 63.227 63.1784 62.5712C61.6289 60.036 59.7513 57.5302 57.7188 55.3082L56.6433 54.1434L56.5704 52.4207C56.5065 50.8545 56.5795 47.7418 56.698 46.7238C56.944 44.5998 57.0625 43.8069 57.1355 43.8069C57.181 43.8069 57.655 44.2474 58.1927 44.7759ZM34.4219 48.1236C36.2084 48.3095 38.2683 48.6913 40.2826 49.2101C41.2487 49.4548 41.4675 49.5429 41.5313 49.7191C41.5769 49.8267 41.75 50.5217 41.9323 51.246C42.4792 53.5072 43.2539 55.8759 44.211 58.2349C44.4935 58.9299 44.7123 59.5172 44.694 59.5368C44.6758 59.5564 44.2748 59.4585 43.8008 59.3214C41.5951 58.6852 38.6329 58.186 35.6706 57.9413L34.8685 57.8826L34.6407 57.3246C34.1302 56.1207 33.3282 53.8693 32.9271 52.5577C32.517 51.2069 31.7787 48.29 31.7787 48.0257C31.7787 47.8886 32.3347 47.9082 34.4219 48.1236ZM108.888 47.9767C108.888 48.0061 108.742 48.6423 108.569 49.3863C107.986 51.8627 107.056 54.7209 105.917 57.4812C105.716 57.9511 105.862 57.9119 103.857 58.0979C101.66 58.3035 99.0443 58.7831 96.9297 59.3606C96.3829 59.5172 95.9454 59.6249 95.9454 59.6151C95.9454 59.5955 96.1459 59.0963 96.392 58.4992C97.3946 56.0913 98.3789 53.0471 98.9167 50.6881C99.0534 50.1008 99.2084 49.582 99.2631 49.5135C99.3633 49.396 101.669 48.8185 103.055 48.564C103.939 48.3976 106.609 48.0355 107.293 47.9865C108.141 47.9278 108.888 47.918 108.888 47.9767ZM94.8516 52.2836C94.3503 54.7111 93.7852 56.6982 92.9284 58.9984C92.2995 60.7114 92.1537 61.0344 91.9987 61.0344C91.78 61.0344 88.599 62.7865 87.3321 63.599C85.7826 64.5974 84.6797 65.3902 83.4037 66.418C82.875 66.8487 82.4284 67.2011 82.4102 67.2011C82.392 67.2011 82.7565 66.3495 83.2305 65.3119C84.5065 62.4831 85.4636 59.7619 86.1472 56.9918C86.375 56.0619 86.5118 55.69 86.6667 55.5529C86.9948 55.2691 88.9636 53.9672 89.9753 53.3701C91.4063 52.5185 95.0065 50.7958 95.1068 50.9035C95.125 50.9132 95.0065 51.5397 94.8516 52.2836ZM46.836 51.5005C49.0508 52.5087 51.3842 53.8204 53.3529 55.181C54.1185 55.7095 54.2097 55.8074 54.2917 56.1696C55.1211 59.6249 56.1329 62.5712 57.5547 65.6643C57.9375 66.5159 58.2474 67.2011 58.2383 67.2011C58.2201 67.2011 57.7461 66.8291 57.1901 66.3789C54.9297 64.5778 52.6237 63.09 49.9896 61.7196C48.75 61.0736 48.3672 60.8386 48.2943 60.6429C48.2396 60.5058 48.0118 59.9087 47.7748 59.3214C47.2279 57.9217 46.4532 55.4355 46.0886 53.8889C45.6875 52.1857 45.4597 50.9524 45.5508 50.9524C45.5873 50.9524 46.1615 51.1971 46.836 51.5005ZM67.0521 58C68.0821 60.6037 68.8386 63.1095 69.4219 65.8013C69.6771 67.0151 69.6862 67.0934 69.5769 67.9841C69.431 69.286 69.431 76.0204 69.586 77.4299C69.6498 78.0172 69.7227 78.6828 69.75 78.8982C69.7683 79.1135 69.6498 78.7122 69.4857 78.0172C68.6381 74.5326 67.444 70.9794 66.2318 68.3757C65.8399 67.5437 65.6849 66.555 65.4935 63.6283C65.3386 61.2987 65.4753 56.5807 65.7396 55.3572C65.7852 55.1418 65.8399 55.2103 66.1589 55.8955C66.3685 56.3262 66.7696 57.2757 67.0521 58ZM74.9271 55.7683C75.2735 59.3704 75.2461 62.9236 74.8451 66.4669C74.7175 67.573 74.6719 67.7394 74.125 69.0217C72.9401 71.8114 71.9467 74.7871 71.2448 77.6942C71.0443 78.5164 70.8985 78.996 70.9258 78.7513C70.944 78.5066 71.017 77.8214 71.0808 77.2341C71.2357 75.7561 71.2357 70.0005 71.0808 68.131L70.9532 66.6627L71.3815 64.8519C71.8829 62.7278 72.5118 60.6429 73.1954 58.8516C73.806 57.2463 74.7084 55.1614 74.7995 55.1614C74.836 55.1614 74.8998 55.4355 74.9271 55.7683ZM83.0391 59.7717C82.6198 61.514 81.7722 64.196 81.1342 65.8307C80.4141 67.6807 79.1745 70.3236 78.9831 70.441C78.7461 70.5683 76.4948 73.1916 75.4558 74.5228C74.3894 75.9029 73.487 77.1852 72.6667 78.5066C71.9193 79.7008 71.8829 79.74 72.2292 78.996C73.5599 76.1378 74.7357 72.8 75.5743 69.5209C76.0026 67.8569 76.0391 67.7884 77.3881 65.6839C78.7735 63.5304 80.2956 61.5728 82.073 59.6836C82.7474 58.9691 83.3125 58.3916 83.3308 58.4111C83.349 58.4405 83.2214 59.0474 83.0391 59.7717ZM59.1862 60.4275C61.0365 62.5712 62.4493 64.4799 63.9532 66.8976C64.6914 68.082 64.7188 68.1505 65.1016 69.6384C65.9128 72.8098 67.0065 75.9029 68.2552 78.6045C68.7839 79.74 68.7565 79.7204 67.918 78.4087C66.3412 75.9225 64.7735 73.8767 62.75 71.6548L61.319 70.0789L60.4896 68.2778C59.6237 66.3691 58.8125 64.245 58.2657 62.4439C57.9193 61.2889 57.2995 58.8222 57.2995 58.6069C57.2995 58.4111 58.1563 59.2431 59.1862 60.4275ZM39.1159 62.0622C40.5834 62.1405 42.7344 62.4341 44.4024 62.7963C46.7539 63.3053 46.517 63.1781 47.319 64.4114C48.987 66.9759 51.1107 69.5796 53.3529 71.831C53.7722 72.2421 54.0912 72.5847 54.0638 72.5847C54.0365 72.5847 53.5352 72.4281 52.9427 72.2323C49.9076 71.2437 45.2865 70.3333 43.2722 70.3333H42.8164L41.7683 69.0804C40.5105 67.5926 39.5717 66.3397 38.6693 64.9498C37.9675 63.8828 36.8829 62.072 36.8829 61.9643C36.8829 61.9349 37.1381 61.9349 37.4571 61.9545C37.767 61.9839 38.5144 62.0328 39.1159 62.0622ZM103.693 61.9839C103.684 62.1307 102.526 64.0101 101.678 65.2728C100.803 66.5746 99.4089 68.3953 98.3881 69.5796L97.8138 70.2355L96.3555 70.3823C93.6576 70.6564 90.7227 71.2632 88.0612 72.0953C87.4141 72.3008 86.8034 72.5064 86.7214 72.5357C86.6302 72.5749 87.4141 71.6841 88.4532 70.5585C90.4219 68.4344 91.9258 66.5453 93.2839 64.4603L94.086 63.2368L95.125 62.9725C96.5105 62.6103 98.6068 62.2384 100.184 62.072C101.587 61.9251 103.693 61.8762 103.693 61.9839ZM33.5196 63.4032C34.6771 65.1749 36.2539 67.2598 37.694 68.9336C38.3503 69.6971 38.8881 70.3431 38.8881 70.3627C38.8881 70.3823 38.5052 70.4312 38.0495 70.4704C36.0534 70.627 32.7631 71.2828 30.3842 72.0072L29.1081 72.3987L28.3151 71.4884C26.5105 69.4132 24.9519 67.3185 23.5938 65.1259C23.3386 64.7148 23.1107 64.3233 23.1016 64.2646C23.0651 64.1275 23.4115 64.0003 25.4441 63.4326C27.5313 62.855 31.1771 62.1699 32.4349 62.1209C32.6446 62.1111 32.7813 62.2775 33.5196 63.4032ZM110.711 62.4146C112.342 62.6789 114.585 63.1976 116.189 63.6773C116.9 63.9024 117.52 64.0982 117.565 64.1275C117.602 64.1569 117.346 64.6463 116.982 65.2238C115.697 67.2892 114.001 69.5405 112.251 71.5373L111.486 72.3987L110.301 72.0463C107.995 71.3709 104.796 70.7347 102.398 70.4802C102.052 70.441 101.779 70.3823 101.779 70.3431C101.779 70.3138 102.07 69.9712 102.426 69.5992C103.93 68.0135 106.281 64.9204 107.576 62.8061L108.022 62.0915L108.751 62.1503C109.152 62.1894 110.036 62.3069 110.711 62.4146ZM52.2592 65.5958C54.4193 66.6823 57.3451 68.591 59.4597 70.2942C60.3529 71.0185 60.5534 71.2339 61.0912 72.0757C62.5586 74.3564 64.2995 76.5881 66.3776 78.8296C67.2435 79.7595 67.8177 80.4154 67.6628 80.2881C65.1745 78.2521 61.8204 76.0889 59.2045 74.8262L57.9102 74.1998L56.4245 72.6434C54.2006 70.3333 52.7149 68.4638 51.1927 66.0558C50.737 65.3511 50.3724 64.7442 50.3724 64.7148C50.3724 64.6561 50.8464 64.8812 52.2592 65.5958ZM89.9206 65.263C88.3711 67.7296 86.7032 69.8929 84.5065 72.2519L82.7748 74.1214L80.9701 75.0611C79.9675 75.5799 78.6459 76.3238 78.017 76.7056C76.9506 77.3614 74.2435 79.2603 73.2045 80.0826C72.9037 80.3175 73.0586 80.1315 73.6602 79.5148C75.5196 77.6159 77.8894 74.6207 79.5118 72.1344C80.2227 71.0381 80.3776 70.8619 81.2618 70.1572C83.1576 68.64 84.4427 67.759 86.4571 66.5648C87.487 65.958 90.0573 64.6561 90.2305 64.6561C90.267 64.6561 90.1302 64.9302 89.9206 65.263ZM65.8855 76.549C67.5808 78.5262 70.0782 81.9913 69.9323 82.1577C69.8138 82.2751 67.3529 79.4072 65.9219 77.4789C65.1472 76.4511 63.8164 74.5032 63.6433 74.1508C63.5157 73.9061 64.819 75.296 65.8855 76.549ZM76.3399 75.1492C75.4193 76.5587 74.5717 77.7138 73.3776 79.1918C72.293 80.5426 70.6068 82.3828 70.6068 82.2262C70.6068 82.0794 72.2383 79.7106 73.2409 78.399C74.2526 77.0677 76.8959 74.0138 76.9597 74.0921C76.987 74.1117 76.7045 74.5913 76.3399 75.1492Z" fill="white"/>
</g>
<path d="M33.674 109.836C33.674 107.892 33.572 106.116 33.368 104.508C33.368 104.256 33.542 104.13 33.89 104.13C34.238 104.13 34.7 104.466 35.276 105.138C35.852 105.798 36.404 106.524 36.932 107.316C37.46 108.108 37.988 108.84 38.516 109.512C39.056 110.172 39.44 110.502 39.668 110.502C39.896 110.502 40.262 110.154 40.766 109.458C41.282 108.75 41.786 107.982 42.278 107.154C42.782 106.314 43.322 105.546 43.898 104.85C44.486 104.142 44.954 103.788 45.302 103.788C45.662 103.788 45.842 103.884 45.842 104.076C45.95 105.552 46.004 106.872 46.004 108.036C46.004 109.2 45.998 110.148 45.986 110.88C45.974 111.6 45.962 112.128 45.95 112.464C45.95 112.788 45.932 113.538 45.896 114.714C45.86 115.878 45.842 116.562 45.842 116.766C45.662 117.018 45.416 117.144 45.104 117.144C44.972 117.144 44.846 117.108 44.726 117.036C44.654 115.56 44.618 113.82 44.618 111.816C44.618 109.812 44.636 107.736 44.672 105.588C44.432 105.78 44.09 106.23 43.646 106.938C43.214 107.634 42.794 108.33 42.386 109.026C41.978 109.71 41.516 110.334 41 110.898C40.484 111.45 40.004 111.726 39.56 111.726C39.116 111.726 38.606 111.402 38.03 110.754C37.466 110.106 36.836 109.23 36.14 108.126C35.456 107.01 35.006 106.314 34.79 106.038C34.85 107.046 34.88 108.096 34.88 109.188C34.88 110.268 34.874 111.024 34.862 111.456C34.85 113.376 34.814 115.122 34.754 116.694C34.562 116.946 34.262 117.072 33.854 117.072C33.746 117.072 33.644 117.054 33.548 117.018C33.548 117.018 33.59 114.624 33.674 109.836ZM54.0379 104.076L56.8099 104.13C57.7339 104.13 58.3699 104.238 58.7179 104.454C58.6819 104.79 58.5559 105.012 58.3399 105.12C58.1239 105.228 57.8119 105.282 57.4039 105.282L53.5159 105.228C52.5319 105.228 51.7039 105.258 51.0319 105.318C50.8999 105.99 50.8339 106.956 50.8339 108.216L50.8519 109.026C50.8519 109.374 50.8459 109.746 50.8339 110.142C51.3859 110.238 52.1059 110.286 52.9939 110.286L55.1359 110.268C55.9519 110.268 56.4199 110.31 56.5399 110.394C56.6599 110.478 56.7199 110.568 56.7199 110.664C56.7199 111.12 56.1379 111.348 54.9739 111.348L50.8879 111.222C50.8759 111.51 50.8639 112.002 50.8519 112.698C50.8279 114.15 50.7739 115.248 50.6899 115.992C51.4579 116.04 52.0099 116.064 52.3459 116.064C52.6819 116.064 53.0299 116.058 53.3899 116.046C53.7499 116.034 54.4219 115.998 55.4059 115.938C56.3899 115.878 57.1219 115.848 57.6019 115.848C58.0939 115.848 58.4299 115.884 58.6099 115.956C58.7899 116.016 58.8799 116.16 58.8799 116.388C58.8799 116.532 58.8379 116.634 58.7539 116.694C58.6819 116.742 58.6159 116.784 58.5559 116.82C58.4959 116.844 58.4179 116.868 58.3219 116.892C58.2379 116.904 58.1599 116.916 58.0879 116.928C58.0279 116.94 57.9379 116.952 57.8179 116.964C57.7099 116.964 57.6199 116.97 57.5479 116.982C57.4879 116.982 57.4039 116.982 57.2959 116.982H57.0439C54.6919 117.09 53.1859 117.144 52.5259 117.144C50.5459 117.144 49.5559 116.868 49.5559 116.316C49.5319 115.2 49.5199 114.138 49.5199 113.13C49.5199 109.806 49.6279 107.04 49.8439 104.832C50.0959 104.436 50.8279 104.208 52.0399 104.148C52.7959 104.1 53.4619 104.076 54.0379 104.076ZM62.6218 113.544L62.6758 116.262C62.6758 116.634 62.5918 116.886 62.4238 117.018C62.2558 117.15 62.0998 117.216 61.9558 117.216C61.8118 117.216 61.6738 117.198 61.5418 117.162C61.3858 115.878 61.3078 114.624 61.3078 113.4C61.3078 112.176 61.3438 110.79 61.4158 109.242C61.4998 107.694 61.5478 106.47 61.5598 105.57C61.5598 104.61 62.8438 104.13 65.4118 104.13C66.7678 104.13 68.0458 104.412 69.2458 104.976C69.8698 105.264 70.3798 105.672 70.7758 106.2C71.1718 106.716 71.3698 107.298 71.3698 107.946C71.3698 108.582 71.2258 109.158 70.9378 109.674C70.6498 110.19 70.2838 110.622 69.8398 110.97C69.3958 111.306 68.8858 111.6 68.3098 111.852C67.3618 112.284 66.3058 112.572 65.1418 112.716C65.7178 113.04 66.6538 113.82 67.9498 115.056C68.3338 115.428 68.8198 115.764 69.4078 116.064C69.9958 116.352 70.6018 116.496 71.2258 116.496C71.2858 116.496 71.4118 116.484 71.6038 116.46C71.7958 116.424 71.9578 116.4 72.0898 116.388C72.2218 116.376 72.3418 116.406 72.4498 116.478C72.5698 116.538 72.6298 116.652 72.6298 116.82C72.6298 117.228 72.1198 117.432 71.0998 117.432C69.9118 117.432 68.7298 116.976 67.5538 116.064C67.0378 115.68 66.5338 115.284 66.0418 114.876C64.8298 113.856 63.6958 113.214 62.6398 112.95C62.6278 113.058 62.6218 113.256 62.6218 113.544ZM70.0198 108.162C70.0198 107.154 69.5638 106.398 68.6518 105.894C67.7518 105.378 66.6058 105.12 65.2138 105.12C64.3378 105.12 63.5218 105.216 62.7658 105.408C62.7658 106.356 62.7358 107.412 62.6758 108.576C62.6158 109.728 62.5858 110.52 62.5858 110.952C62.5858 111.384 62.5918 111.702 62.6038 111.906C64.3798 111.774 65.7538 111.564 66.7258 111.276C67.7698 110.976 68.5498 110.604 69.0658 110.16C69.7018 109.608 70.0198 108.942 70.0198 108.162ZM84.8403 116.91C84.6483 117.174 84.3723 117.306 84.0123 117.306C83.9163 117.306 83.8203 117.294 83.7243 117.27C83.4603 116.67 83.2623 115.824 83.1303 114.732C83.0103 113.628 82.9203 112.902 82.8603 112.554C81.5523 112.506 80.2443 112.482 78.9363 112.482C77.6283 112.482 76.4583 112.536 75.4263 112.644C75.3183 113.136 75.1983 113.874 75.0663 114.858C74.9463 115.83 74.8563 116.484 74.7963 116.82C74.3643 117.168 73.9743 117.216 73.6263 116.964C73.6623 116.676 73.7163 116.22 73.7883 115.596C73.8603 114.972 73.9203 114.444 73.9683 114.012C74.0283 113.568 74.1123 113.01 74.2203 112.338C74.3283 111.666 74.4303 111.09 74.5263 110.61C74.6343 110.118 74.7783 109.572 74.9583 108.972C75.1383 108.36 75.3243 107.838 75.5163 107.406C75.7083 106.974 75.9423 106.536 76.2183 106.092C76.5063 105.648 76.8123 105.288 77.1363 105.012C77.8803 104.4 78.6903 104.094 79.5663 104.094C80.4423 104.094 81.1683 104.43 81.7443 105.102C82.3323 105.774 82.7763 106.656 83.0763 107.748C83.3763 108.84 83.6163 109.938 83.7963 111.042C83.9763 112.146 84.1503 113.274 84.3183 114.426C84.4863 115.578 84.6603 116.406 84.8403 116.91ZM81.4923 106.92C81.2643 106.332 80.9703 105.876 80.6103 105.552C80.2503 105.216 79.8063 105.048 79.2783 105.048C78.7503 105.048 78.2403 105.306 77.7483 105.822C77.2563 106.338 76.8663 106.98 76.5783 107.748C76.0623 109.176 75.7383 110.496 75.6063 111.708C76.8063 111.576 78.0123 111.51 79.2243 111.51C80.4363 111.51 81.6063 111.546 82.7343 111.618C82.6863 111.438 82.5963 111.012 82.4643 110.34C82.3323 109.668 82.1943 109.08 82.0503 108.576C81.9183 108.06 81.7323 107.508 81.4923 106.92ZM88.8243 104.292L88.8783 108.522C88.8783 109.122 88.8603 109.704 88.8243 110.268C89.8803 109.848 90.8163 109.35 91.6323 108.774C92.4603 108.186 93.0963 107.634 93.5403 107.118C93.9843 106.59 94.3683 106.098 94.6923 105.642C95.0283 105.174 95.3163 104.802 95.5563 104.526C95.8083 104.25 96.0423 104.112 96.2583 104.112C96.4743 104.112 96.6843 104.19 96.8883 104.346C96.3963 105.582 95.7003 106.65 94.8003 107.55C93.9123 108.438 92.7843 109.344 91.4163 110.268C92.0523 110.592 92.6523 111.054 93.2163 111.654C93.7923 112.242 94.2663 112.824 94.6383 113.4C95.6823 114.996 96.6603 116.136 97.5723 116.82C97.3683 117.132 97.0683 117.288 96.6723 117.288C96.2883 117.288 95.8203 116.982 95.2683 116.37C94.7163 115.746 94.2063 115.056 93.7383 114.3C93.2703 113.544 92.7363 112.812 92.1363 112.104C91.5363 111.384 90.9843 110.952 90.4803 110.808C90.3843 110.844 90.1383 110.958 89.7423 111.15C89.3583 111.33 89.0523 111.456 88.8243 111.528C88.8243 113.556 88.7943 115.26 88.7343 116.64C88.5183 116.856 88.1283 116.964 87.5643 116.964C87.5403 116.604 87.5283 115.782 87.5283 114.498L87.6003 104.652C87.7443 104.388 88.0143 104.256 88.4103 104.256C88.5423 104.256 88.6803 104.268 88.8243 104.292ZM101.038 104.328C100.918 109.752 100.852 113.988 100.84 117.036C100.66 117.228 100.498 117.324 100.354 117.324C100.222 117.324 100.108 117.294 100.012 117.234C99.7363 117.054 99.5983 116.718 99.5983 116.226C99.6223 110.454 99.6643 107.076 99.7243 106.092C99.7843 105.108 99.8743 104.538 99.9943 104.382C100.114 104.226 100.258 104.148 100.426 104.148C100.594 104.148 100.798 104.208 101.038 104.328Z" fill="white"/>
<path d="M35.818 124.662C35.818 124.214 37.4233 123.99 40.634 123.99C41.3713 123.99 42.3187 124.023 43.476 124.088C44.6333 124.144 45.2307 124.228 45.268 124.34C45.2493 124.76 44.862 124.97 44.106 124.97C43.8913 124.97 43.532 124.947 43.028 124.9C42.524 124.853 42.09 124.83 41.726 124.83C41.3713 124.83 41.194 124.909 41.194 125.068C41.194 127.075 41.1473 130.066 41.054 134.042C40.858 134.182 40.5687 134.252 40.186 134.252C40.1767 133.841 40.172 133.351 40.172 132.782L40.242 126.734C40.242 126.006 40.2327 125.395 40.214 124.9C40.018 124.881 39.7613 124.872 39.444 124.872C39.136 124.872 38.6507 124.9 37.988 124.956C37.3253 125.003 36.8587 125.026 36.588 125.026C36.0747 125.026 35.818 124.905 35.818 124.662ZM50.1054 123.948L52.2614 123.99C52.9801 123.99 53.4748 124.074 53.7454 124.242C53.7174 124.503 53.6194 124.676 53.4514 124.76C53.2834 124.844 53.0408 124.886 52.7234 124.886L49.6994 124.844C48.9341 124.844 48.2901 124.867 47.7674 124.914C47.6648 125.437 47.6134 126.188 47.6134 127.168L47.6274 127.798C47.6274 128.069 47.6228 128.358 47.6134 128.666C48.0428 128.741 48.6028 128.778 49.2934 128.778L50.9594 128.764C51.5941 128.764 51.9581 128.797 52.0514 128.862C52.1448 128.927 52.1914 128.997 52.1914 129.072C52.1914 129.427 51.7388 129.604 50.8334 129.604L47.6554 129.506C47.6461 129.73 47.6368 130.113 47.6274 130.654C47.6088 131.783 47.5668 132.637 47.5014 133.216C48.0988 133.253 48.5281 133.272 48.7894 133.272C49.0508 133.272 49.3214 133.267 49.6014 133.258C49.8814 133.249 50.4041 133.221 51.1694 133.174C51.9348 133.127 52.5041 133.104 52.8774 133.104C53.2601 133.104 53.5214 133.132 53.6614 133.188C53.8014 133.235 53.8714 133.347 53.8714 133.524C53.8714 133.636 53.8388 133.715 53.7734 133.762C53.7174 133.799 53.6661 133.832 53.6194 133.86C53.5728 133.879 53.5121 133.897 53.4374 133.916C53.3721 133.925 53.3114 133.935 53.2554 133.944C53.2088 133.953 53.1388 133.963 53.0454 133.972C52.9614 133.972 52.8914 133.977 52.8354 133.986C52.7888 133.986 52.7234 133.986 52.6394 133.986H52.4434C50.6141 134.07 49.4428 134.112 48.9294 134.112C47.3894 134.112 46.6194 133.897 46.6194 133.468C46.6008 132.6 46.5914 131.774 46.5914 130.99C46.5914 128.405 46.6754 126.253 46.8434 124.536C47.0394 124.228 47.6088 124.051 48.5514 124.004C49.1394 123.967 49.6574 123.948 50.1054 123.948ZM56.7818 131.312L56.8238 133.426C56.8238 133.715 56.7585 133.911 56.6278 134.014C56.4971 134.117 56.3758 134.168 56.2638 134.168C56.1518 134.168 56.0445 134.154 55.9418 134.126C55.8205 133.127 55.7598 132.152 55.7598 131.2C55.7598 130.248 55.7878 129.17 55.8438 127.966C55.9091 126.762 55.9465 125.81 55.9558 125.11C55.9558 124.363 56.9545 123.99 58.9518 123.99C60.0065 123.99 61.0005 124.209 61.9338 124.648C62.4191 124.872 62.8158 125.189 63.1238 125.6C63.4318 126.001 63.5858 126.454 63.5858 126.958C63.5858 127.453 63.4738 127.901 63.2498 128.302C63.0258 128.703 62.7411 129.039 62.3958 129.31C62.0505 129.571 61.6538 129.8 61.2058 129.996C60.4685 130.332 59.6471 130.556 58.7418 130.668C59.1898 130.92 59.9178 131.527 60.9258 132.488C61.2245 132.777 61.6025 133.039 62.0598 133.272C62.5171 133.496 62.9885 133.608 63.4738 133.608C63.5205 133.608 63.6185 133.599 63.7678 133.58C63.9171 133.552 64.0431 133.533 64.1458 133.524C64.2485 133.515 64.3418 133.538 64.4258 133.594C64.5191 133.641 64.5658 133.729 64.5658 133.86C64.5658 134.177 64.1691 134.336 63.3758 134.336C62.4518 134.336 61.5325 133.981 60.6178 133.272C60.2165 132.973 59.8245 132.665 59.4418 132.348C58.4991 131.555 57.6171 131.055 56.7958 130.85C56.7865 130.934 56.7818 131.088 56.7818 131.312ZM62.5358 127.126C62.5358 126.342 62.1811 125.754 61.4718 125.362C60.7718 124.961 59.8805 124.76 58.7978 124.76C58.1165 124.76 57.4818 124.835 56.8938 124.984C56.8938 125.721 56.8705 126.543 56.8238 127.448C56.7771 128.344 56.7538 128.96 56.7538 129.296C56.7538 129.632 56.7585 129.879 56.7678 130.038C58.1491 129.935 59.2178 129.772 59.9738 129.548C60.7858 129.315 61.3925 129.025 61.7938 128.68C62.2885 128.251 62.5358 127.733 62.5358 127.126ZM74.0628 133.93C73.9135 134.135 73.6988 134.238 73.4188 134.238C73.3442 134.238 73.2695 134.229 73.1948 134.21C72.9895 133.743 72.8355 133.085 72.7328 132.236C72.6395 131.377 72.5695 130.813 72.5228 130.542C71.5055 130.505 70.4882 130.486 69.4708 130.486C68.4535 130.486 67.5435 130.528 66.7408 130.612C66.6568 130.995 66.5635 131.569 66.4608 132.334C66.3675 133.09 66.2975 133.599 66.2508 133.86C65.9148 134.131 65.6115 134.168 65.3408 133.972C65.3688 133.748 65.4108 133.393 65.4668 132.908C65.5228 132.423 65.5695 132.012 65.6068 131.676C65.6535 131.331 65.7188 130.897 65.8028 130.374C65.8868 129.851 65.9662 129.403 66.0408 129.03C66.1248 128.647 66.2368 128.223 66.3768 127.756C66.5168 127.28 66.6615 126.874 66.8108 126.538C66.9602 126.202 67.1422 125.861 67.3568 125.516C67.5808 125.171 67.8188 124.891 68.0708 124.676C68.6495 124.2 69.2795 123.962 69.9608 123.962C70.6422 123.962 71.2068 124.223 71.6548 124.746C72.1122 125.269 72.4575 125.955 72.6908 126.804C72.9242 127.653 73.1108 128.507 73.2508 129.366C73.3908 130.225 73.5262 131.102 73.6568 131.998C73.7875 132.894 73.9228 133.538 74.0628 133.93ZM71.4588 126.16C71.2815 125.703 71.0528 125.348 70.7728 125.096C70.4928 124.835 70.1475 124.704 69.7368 124.704C69.3262 124.704 68.9295 124.905 68.5468 125.306C68.1642 125.707 67.8608 126.207 67.6368 126.804C67.2355 127.915 66.9835 128.941 66.8808 129.884C67.8142 129.781 68.7522 129.73 69.6948 129.73C70.6375 129.73 71.5475 129.758 72.4248 129.814C72.3875 129.674 72.3175 129.343 72.2148 128.82C72.1122 128.297 72.0048 127.84 71.8928 127.448C71.7902 127.047 71.6455 126.617 71.4588 126.16ZM76.1815 129.492C76.1815 128.036 76.1209 126.753 75.9995 125.642C75.9995 125.353 76.1209 125.101 76.3635 124.886C76.6062 124.671 76.9282 124.508 77.3295 124.396C78.1322 124.191 79.0142 124.088 79.9755 124.088C81.2169 124.088 82.1922 124.363 82.9015 124.914C83.6202 125.455 83.9795 126.291 83.9795 127.42C83.9795 128.549 83.5222 129.455 82.6075 130.136C81.6929 130.817 80.5775 131.158 79.2615 131.158C78.5895 131.158 77.8849 131.018 77.1475 130.738C77.1009 131.186 77.0775 131.793 77.0775 132.558L77.0915 133.244C77.0915 133.468 77.0869 133.701 77.0775 133.944C77.0309 134.009 76.9795 134.056 76.9235 134.084C76.8675 134.112 76.8255 134.131 76.7975 134.14C76.7789 134.159 76.7462 134.173 76.6995 134.182C76.6529 134.191 76.6202 134.196 76.6015 134.196C76.5455 134.215 76.4802 134.224 76.4055 134.224H76.1675C76.1489 133.524 76.1395 132.894 76.1395 132.334L76.1815 129.492ZM77.1195 129.73C77.8009 130.187 78.6175 130.416 79.5695 130.416C80.5215 130.407 81.3242 130.113 81.9775 129.534C82.6309 128.946 82.9575 128.227 82.9575 127.378C82.9575 126.529 82.6215 125.894 81.9495 125.474C81.2775 125.054 80.4702 124.844 79.5275 124.844C78.5942 124.844 77.7682 125.059 77.0495 125.488C77.0962 126.095 77.1195 127.509 77.1195 129.73ZM87.0441 124.144C86.9508 128.363 86.8994 131.657 86.8901 134.028C86.7501 134.177 86.6241 134.252 86.5121 134.252C86.4094 134.252 86.3208 134.229 86.2461 134.182C86.0314 134.042 85.9241 133.781 85.9241 133.398C85.9428 128.909 85.9754 126.281 86.0221 125.516C86.0688 124.751 86.1388 124.307 86.2321 124.186C86.3254 124.065 86.4374 124.004 86.5681 124.004C86.6988 124.004 86.8574 124.051 87.0441 124.144ZM97.8541 133.93C97.7047 134.135 97.4901 134.238 97.2101 134.238C97.1354 134.238 97.0607 134.229 96.9861 134.21C96.7807 133.743 96.6267 133.085 96.5241 132.236C96.4307 131.377 96.3607 130.813 96.3141 130.542C95.2967 130.505 94.2794 130.486 93.2621 130.486C92.2447 130.486 91.3347 130.528 90.5321 130.612C90.4481 130.995 90.3547 131.569 90.2521 132.334C90.1587 133.09 90.0887 133.599 90.0421 133.86C89.7061 134.131 89.4027 134.168 89.1321 133.972C89.1601 133.748 89.2021 133.393 89.2581 132.908C89.3141 132.423 89.3607 132.012 89.3981 131.676C89.4447 131.331 89.5101 130.897 89.5941 130.374C89.6781 129.851 89.7574 129.403 89.8321 129.03C89.9161 128.647 90.0281 128.223 90.1681 127.756C90.3081 127.28 90.4527 126.874 90.6021 126.538C90.7514 126.202 90.9334 125.861 91.1481 125.516C91.3721 125.171 91.6101 124.891 91.8621 124.676C92.4407 124.2 93.0707 123.962 93.7521 123.962C94.4334 123.962 94.9981 124.223 95.4461 124.746C95.9034 125.269 96.2487 125.955 96.4821 126.804C96.7154 127.653 96.9021 128.507 97.0421 129.366C97.1821 130.225 97.3174 131.102 97.4481 131.998C97.5787 132.894 97.7141 133.538 97.8541 133.93ZM95.2501 126.16C95.0727 125.703 94.8441 125.348 94.5641 125.096C94.2841 124.835 93.9387 124.704 93.5281 124.704C93.1174 124.704 92.7207 124.905 92.3381 125.306C91.9554 125.707 91.6521 126.207 91.4281 126.804C91.0267 127.915 90.7747 128.941 90.6721 129.884C91.6054 129.781 92.5434 129.73 93.4861 129.73C94.4287 129.73 95.3387 129.758 96.2161 129.814C96.1787 129.674 96.1087 129.343 96.0061 128.82C95.9034 128.297 95.7961 127.84 95.6841 127.448C95.5814 127.047 95.4367 126.617 95.2501 126.16Z" fill="white"/>
<defs>
<clipPath id="clip0">
<rect width="116.667" height="74" fill="white" transform="translate(12 21)"/>
</clipPath>
</defs>
</svg>
