<svg width="162" height="146" viewBox="0 0 162 146" fill="none" xmlns="http://www.w3.org/2000/svg">
<g clip-path="url(#clip0)">
<path d="M65.5256 2.27887C63.0248 6.90415 60.9408 12.506 59.5389 18.4334C59.2357 19.7356 58.9705 20.8207 58.9452 20.8342C58.92 20.8614 58.4527 20.5223 57.8969 20.1018C54.3857 17.3348 50.4199 14.8119 46.4919 12.8316C45.0268 12.0855 40.5304 10.2816 40.4294 10.3765C40.3157 10.4986 39.6337 14.7576 39.4568 16.4124C39.04 20.4273 39.0906 27.1279 39.5831 31.4276C39.6589 32.2008 39.7221 32.8247 39.6968 32.8247C39.6842 32.8247 39.1663 32.6755 38.5601 32.472C34.5942 31.2377 30.4768 30.3561 26.4982 29.9085C24.2627 29.6643 18.9454 29.6236 18.9454 29.8542C18.9454 29.9356 19.0843 30.9258 19.2611 32.0651C20.0695 37.2058 21.7493 42.7128 24.2627 48.4774C24.8184 49.7524 25.311 50.8646 25.3363 50.946C25.3868 51.0545 24.97 51.1359 24.0354 51.1902C19.7158 51.4886 14.79 52.3702 10.7736 53.5774C9.05592 54.0928 5.22897 55.5306 5.01426 55.7476C4.95111 55.8019 5.3679 56.7242 5.93626 57.7958C8.4623 62.5703 11.6072 66.8836 15.8889 71.4546L17.8339 73.5163L17.1645 73.8147C11.8093 76.202 5.70892 80.1762 1.61673 83.9469L0.0126953 85.4254L1.65462 86.9445C8.58861 93.3467 18.9327 98.6908 28.8475 100.983C34.1143 102.204 40.6314 102.801 44.4584 102.421C56.9497 101.187 69.0241 95.8289 79.002 87.1073C79.5577 86.619 80.1008 86.1307 80.2019 86.0086C80.4166 85.778 80.6313 85.6424 78.2189 87.365C65.9171 96.2358 51.1903 100.251 38.4338 98.2025C31.1462 97.0361 23.7322 94.1334 17.0508 89.8201C15.0679 88.5451 11.1273 85.6288 11.1146 85.4389C11.1146 85.3033 14.108 83.011 15.7499 81.9123C17.5687 80.678 19.9811 79.2403 21.6356 78.3857L22.7471 77.8161L23.2775 78.2365C24.3385 79.0911 27.3824 81.2206 28.7338 82.0887C35.9204 86.6326 41.8187 88.7621 50.2683 89.8743C52.567 90.1727 59.2231 90.2812 61.7239 90.0778C65.8287 89.7251 69.8956 88.9927 73.6342 87.9483C75.3645 87.46 79.9998 85.8594 79.9114 85.778C79.8861 85.7509 79.1031 85.9408 78.1558 86.1985C72.4722 87.7312 66.9023 88.3959 60.9408 88.2602C52.3649 88.0568 45.1404 86.2663 38.3327 82.6584C35.3141 81.0578 31.8661 78.6977 29.1758 76.4054L28.1023 75.4966L29.6179 74.9676C32.7502 73.869 36.514 72.9738 39.8736 72.5126L41.4145 72.2956L42.5386 73.1636C47.0728 76.6767 52.908 79.8099 58.8316 81.9123C63.429 83.5536 68.5189 84.6929 73.3816 85.1812C75.3645 85.3711 80.4166 85.4932 79.002 85.3033C78.4463 85.2355 77.1075 85.0592 76.0339 84.8964C67.0538 83.635 57.9475 80.1219 50.7861 75.1847C49.0811 74.0182 46.8329 72.2413 46.9718 72.187C47.2497 72.0921 51.5818 72.6075 53.7037 72.9873C56.1161 73.4214 59.0589 74.1674 61.3955 74.927C62.6964 75.3474 63.0122 75.5238 64.2373 76.4461C68.14 79.3759 72.9774 82.1836 77.2338 84.0012C78.8883 84.7065 80.1387 85.1948 80.063 85.127C80.0251 85.0863 78.9262 84.4759 77.6001 83.7706C76.2865 83.0653 74.5309 82.0615 73.6973 81.519C71.8533 80.3525 68.3169 77.8161 68.4053 77.7347C68.4305 77.694 69.782 78.3857 71.3986 79.2538C74.2657 80.8001 77.3096 82.7262 79.3178 84.2589C79.8735 84.6794 80.3282 84.9642 80.3282 84.8964C80.3282 84.815 80.3787 84.7879 80.4419 84.8286C80.4924 84.8693 80.1387 83.9062 79.6335 82.699C78.2442 79.3488 77.0317 75.6865 76.1728 72.2413C76.0213 71.6581 75.9202 71.1562 75.9455 71.1291C76.0213 71.0477 77.2212 73.8418 77.979 75.8629C78.7999 78.0738 79.4314 80.027 80.1514 82.6719L80.7071 84.7065L80.606 83.2823C80.3787 79.7557 80.5682 69.2437 80.846 70.2881C81.187 71.6309 81.3007 79.7557 81.0228 83.6892L80.9597 84.5709L81.3765 83.011C82.3364 79.498 83.6752 75.5509 84.8119 72.9059C85.0645 72.3091 85.3676 71.6174 85.4687 71.3597C85.8602 70.3966 85.7339 71.1291 85.1403 73.3942C84.193 76.948 82.9805 80.5017 81.7049 83.4044C81.3639 84.1775 81.1239 84.8693 81.187 84.9371C81.2376 84.9913 81.6417 84.7743 82.0838 84.4217C84.7488 82.3328 90.3313 78.9283 92.8952 77.8025L93.4005 77.5855L93.0847 77.8567C92.529 78.3315 88.9041 80.9086 87.7169 81.6546C87.098 82.0615 85.4687 82.9839 84.1172 83.7299C81.4144 85.2084 81.4144 85.2491 84.1172 84.0961C89.0809 81.9802 94.2467 78.9419 98.2378 75.7815C98.983 75.1982 100.776 74.5607 104.01 73.7198C107.344 72.8517 112.283 72.0921 113.988 72.187L114.733 72.2277L112.977 73.5299C104.591 79.7557 94.3856 83.8655 84.3699 85.0456C83.6373 85.1405 82.7279 85.2491 82.349 85.3169C81.6922 85.4118 81.7049 85.4254 82.7911 85.4389C84.4709 85.4525 87.9442 85.2084 90.2555 84.91C100.713 83.54 110.868 79.403 119.002 73.2315C120.416 72.1464 120.315 72.1599 122.917 72.5668C126.024 73.0416 129.043 73.8011 132.238 74.8998L133.552 75.361L132.617 76.1613C127.793 80.2847 121.566 83.9198 116.552 85.5203C111.045 87.2701 106.422 88.0161 100.284 88.1246C93.8046 88.2467 89.1062 87.6906 83.3342 86.1307C82.5258 85.9001 81.8186 85.7238 81.7554 85.7374C81.7049 85.7374 82.1975 85.9544 82.8542 86.1985C96.7475 91.5698 113.318 91.5156 125.633 86.09C129.725 84.286 134.436 81.424 138.01 78.5892C138.516 78.1823 138.983 77.8567 139.059 77.8567C139.349 77.8567 143.252 80.0948 145.058 81.2884C147.521 82.9161 150.59 85.2762 150.489 85.4661C150.287 85.8052 146.043 88.8842 144.111 90.0914C135.358 95.5305 125.38 98.623 116.577 98.6502C105.69 98.6773 93.4005 94.4725 83.4478 87.3379C82.4248 86.6054 81.6165 86.0629 81.6544 86.1307C81.6922 86.1985 82.3869 86.836 83.2079 87.5278C92.6805 95.6932 103.833 100.698 116.135 102.299C118.156 102.557 123.839 102.516 126.239 102.217C136.406 100.956 146.258 97.1039 154.973 90.9459C157.297 89.3182 158.156 88.6129 160.164 86.7682C161.326 85.7102 161.629 85.3576 161.503 85.2491C160.341 84.1233 158.446 82.4549 157.486 81.6953C153.785 78.7384 148.872 75.7815 144.313 73.7333L143.833 73.5163L145.765 71.441C148.658 68.3485 151.184 65.1474 153.444 61.6886C154.619 59.8982 156.779 55.8697 156.64 55.7205C156.589 55.6798 155.705 55.2865 154.657 54.866C149.87 52.9399 143.694 51.6107 137.644 51.1902C136.886 51.1495 136.28 51.0952 136.28 51.0681C136.28 51.0545 136.659 50.2 137.114 49.1556C139.172 44.5168 140.941 39.2404 141.825 35.117C142.191 33.408 142.747 29.8135 142.658 29.7186C142.481 29.5422 136.937 29.6643 135.08 29.8949C131.152 30.3696 127.439 31.1428 123.991 32.2143C122.905 32.5534 121.995 32.8247 121.97 32.8247C121.957 32.8247 122.008 32.1736 122.096 31.3598C122.564 26.8837 122.614 20.78 122.197 16.643C122.046 15.0289 121.326 10.4715 121.212 10.3629C121.149 10.2816 117.044 11.8957 115.87 12.4518C111.979 14.2965 107.344 17.2263 103.896 19.9933C103.277 20.4951 102.759 20.8749 102.734 20.8478C102.709 20.8342 102.469 19.8712 102.191 18.7183C100.713 12.5467 98.4399 6.47011 95.876 1.87196L94.8403 0.000137329L93.11 1.53286C89.2704 4.92383 85.254 9.76613 81.9954 14.9475C81.4017 15.9106 80.8839 16.6837 80.8334 16.6837C80.7829 16.6837 80.2524 15.8834 79.6462 14.9204C76.6149 10.0781 72.4217 5.01878 68.7084 1.70919C67.7738 0.868225 66.9528 0.149345 66.877 0.10865C66.8139 0.0679626 66.195 1.04456 65.5256 2.27887ZM93.8299 13.5911C95.3076 16.9278 96.3559 19.8576 97.3663 23.4521L97.8842 25.2696L96.2675 27.0465C94.1204 29.4066 92.1122 31.9024 90.5839 34.0861C89.8893 35.0627 89.2451 36.0122 89.1567 36.175C89.0557 36.3513 88.942 36.4869 88.9041 36.4869C88.8662 36.4869 88.7652 36.1343 88.6768 35.7002C88.4241 34.4524 86.858 29.5151 86.1002 27.5891C85.7087 26.6124 85.0771 25.134 84.6982 24.2795C84.3067 23.4385 83.9909 22.7061 83.9909 22.6382C83.9909 22.4619 86.1507 19.3965 87.4011 17.8231C88.3989 16.5616 92.7942 11.6651 92.9331 11.6651C92.9584 11.6651 93.3626 12.5332 93.8299 13.5911ZM70.9187 13.9981C73.0658 16.331 74.8719 18.5826 76.6402 21.1326L77.7011 22.6654L76.817 24.7271C75.3393 28.1859 74.0889 31.7667 73.1795 35.1848C72.8511 36.4734 72.8258 36.5141 72.649 36.2292C72.1438 35.429 70.1356 32.6077 69.201 31.4005C68.62 30.6545 67.1549 28.959 65.9424 27.6433L63.7447 25.2425L63.9721 24.388C64.4141 22.6789 65.4372 19.4779 66.1318 17.6603C67.0412 15.2324 68.5821 11.8007 68.7589 11.8007C68.8347 11.8007 69.8072 12.7909 70.9187 13.9981ZM47.3507 21.2276C50.382 22.6654 53.3501 24.4151 56.154 26.3819L57.9348 27.6297L57.8338 28.5657C57.4675 32.0651 57.3665 36.9888 57.6064 40.3391C57.6696 41.3699 57.7075 42.238 57.6822 42.2787C57.6443 42.3058 57.0886 41.9396 56.4318 41.4649C53.931 39.6066 49.6999 37.0838 46.6561 35.646L45.633 35.1577L45.5572 34.4388C45.3804 32.784 45.3172 28.4164 45.4562 26.1784C45.633 23.0994 45.873 20.6172 45.9867 20.6172C46.0245 20.6172 46.6434 20.8885 47.3507 21.2276ZM115.743 20.9156C116.072 22.584 116.312 30.9529 116.11 33.7742C116.021 35.1034 115.983 35.1984 115.693 35.3476C115.516 35.4425 114.266 36.0936 112.914 36.8125C110.199 38.2231 107.71 39.7558 105.412 41.4106C104.136 42.3194 103.921 42.4415 103.985 42.1702C104.022 41.9939 104.123 40.529 104.199 38.9284C104.326 35.9715 104.225 31.8752 103.947 29.2981C103.745 27.3856 103.656 27.5891 105.184 26.5175C107.925 24.605 110.868 22.8688 113.609 21.5396C114.657 21.0377 115.541 20.6308 115.592 20.6172C115.642 20.6172 115.718 20.7529 115.743 20.9156ZM82.2859 31.1292C83.6373 34.0726 84.5972 36.6361 85.4434 39.4981L86.0244 41.4785L85.5697 42.4415C84.1172 45.5476 82.3111 51.0003 81.4523 54.8524C80.8334 57.5923 80.8081 57.6737 80.745 57.3075C79.8356 52.5466 78.0169 46.7684 76.1476 42.6856C75.5287 41.3428 75.5287 41.3699 76.4886 38.3045C77.4738 35.1034 78.8757 31.6446 80.3029 28.9047C80.7197 28.1045 80.7576 28.0638 80.9218 28.2944C81.0228 28.4436 81.6291 29.705 82.2859 31.1292ZM99.3114 33.1231C99.7913 36.9617 99.9682 40.9902 99.804 43.9742L99.6903 45.9681L97.9726 47.867C95.2571 50.8918 92.8952 54.0657 90.685 57.6466C89.8387 59.0165 89.6493 59.2471 89.7124 58.8673C89.7629 58.6096 89.8893 57.4431 90.0156 56.2902C90.2808 53.7131 90.3313 45.941 90.0787 43.6215L89.9271 42.1566L90.3945 41.4513C91.9101 39.1997 93.552 37.1787 96.0654 34.4795C97.6189 32.8247 98.9451 31.4683 98.9956 31.4683C99.0588 31.4683 99.2103 32.2143 99.3114 33.1231ZM64.01 32.9468C66.5992 35.5239 68.5947 37.8705 70.565 40.6511L71.6891 42.2516L71.5376 44.0149C71.2092 47.6907 71.3734 55.1101 71.8659 58.379C71.9291 58.8266 71.967 59.2064 71.9544 59.2336C71.9291 59.2471 71.4618 58.5147 70.9187 57.6059C68.7715 54.0928 66.1697 50.6205 63.3532 47.5415L61.8628 45.9274L61.7618 43.5402C61.6734 41.3699 61.7744 37.0566 61.9386 35.646C62.2796 32.7026 62.4438 31.604 62.5449 31.604C62.608 31.604 63.2648 32.2143 64.01 32.9468ZM31.0704 37.5856C33.5459 37.8433 36.4003 38.3723 39.1916 39.0912C40.5304 39.4303 40.8335 39.5524 40.9219 39.7965C40.9851 39.9457 41.2251 40.9088 41.4777 41.9125C42.2355 45.0457 43.309 48.3282 44.6352 51.5971C45.0268 52.5601 45.3299 53.374 45.3046 53.4011C45.2794 53.4282 44.7236 53.2926 44.0669 53.1027C41.0103 52.221 36.9055 51.5293 32.8007 51.1902L31.6893 51.1088L31.3735 50.3357C30.6662 48.6673 29.5548 45.5476 28.999 43.7301C28.4307 41.8582 27.4076 37.8162 27.4076 37.45C27.4076 37.2601 28.1781 37.2872 31.0704 37.5856ZM134.259 37.3822C134.259 37.4229 134.057 38.3045 133.817 39.3354C133.009 42.767 131.721 46.7277 130.142 50.5527C129.864 51.2037 130.066 51.1495 127.287 51.4072C124.243 51.692 120.619 52.3567 117.688 53.1569C116.931 53.374 116.324 53.5232 116.324 53.5096C116.324 53.4825 116.602 52.7907 116.943 51.9633C118.332 48.6266 119.697 44.4082 120.442 41.1394C120.631 40.3255 120.846 39.6066 120.922 39.5117C121.061 39.3489 124.256 38.5487 126.176 38.196C127.401 37.9654 131.102 37.4635 132.049 37.3957C133.223 37.3143 134.259 37.3008 134.259 37.3822ZM114.809 43.3503C114.114 46.7141 113.331 49.4676 112.144 52.6551C111.272 55.0288 111.07 55.4764 110.855 55.4764C110.552 55.4764 106.144 57.9043 104.389 59.0301C102.242 60.4136 100.713 61.5123 98.9451 62.9365C98.2126 63.5333 97.5937 64.0216 97.5684 64.0216C97.5432 64.0216 98.0484 62.8415 98.7051 61.4038C100.473 57.4838 101.8 53.7131 102.747 49.8745C103.063 48.5859 103.252 48.0705 103.467 47.8806C103.921 47.4872 106.65 45.6833 108.051 44.8559C110.034 43.6758 115.023 41.2886 115.162 41.4378C115.188 41.4513 115.023 42.3194 114.809 43.3503ZM48.2727 42.2652C51.3419 43.6622 54.5752 45.4798 57.3033 47.3652C58.3643 48.0976 58.4906 48.2333 58.6042 48.7351C59.7536 53.5232 61.1555 57.6059 63.1258 61.8921C63.6563 63.0721 64.0857 64.0216 64.0731 64.0216C64.0478 64.0216 63.3911 63.5062 62.6206 62.8822C59.4883 60.3865 56.2929 58.3248 52.6428 56.4258C50.9251 55.5306 50.3946 55.2051 50.2936 54.9338C50.2178 54.7439 49.902 53.9165 49.5736 53.1027C48.8158 51.1631 47.7422 47.7178 47.237 45.5747C46.6813 43.2146 46.3656 41.5056 46.4919 41.5056C46.5424 41.5056 47.3381 41.8447 48.2727 42.2652ZM76.2865 51.2716C77.7137 54.8796 78.762 58.3519 79.5704 62.082C79.924 63.7639 79.9366 63.8724 79.7851 65.1067C79.583 66.9107 79.583 76.2426 79.7977 78.1958C79.8861 79.0097 79.9872 79.932 80.0251 80.2304C80.0503 80.5288 79.8861 79.9727 79.6588 79.0097C78.4842 74.1809 76.8296 69.2573 75.1498 65.6493C74.6067 64.4963 74.392 63.1264 74.1268 59.0708C73.912 55.8426 74.1015 49.3048 74.4678 47.6093C74.5309 47.3109 74.6067 47.4059 75.0488 48.3553C75.3393 48.9521 75.895 50.2678 76.2865 51.2716ZM87.199 48.179C87.679 53.1705 87.6411 58.0942 87.0853 63.0043C86.9085 64.537 86.8454 64.7676 86.0876 66.5445C84.4456 70.4102 83.0689 74.5336 82.0964 78.5621C81.8186 79.7014 81.6165 80.3661 81.6544 80.027C81.6796 79.6879 81.7807 78.7384 81.8691 77.9246C82.0838 75.8764 82.0838 67.9009 81.8691 65.3102L81.6922 63.2756L82.2859 60.7663C82.9805 57.8229 83.852 54.9338 84.7993 52.4516C85.6455 50.2271 86.8959 47.338 87.0222 47.338C87.0727 47.338 87.1611 47.7178 87.199 48.179ZM98.4399 53.7266C97.8589 56.141 96.6843 59.8575 95.8002 62.1227C94.8024 64.6862 93.0847 68.3485 92.8195 68.5112C92.4911 68.6876 89.3714 72.3227 87.9316 74.1674C86.4538 76.0799 85.2034 77.8567 84.0667 79.6879C83.0311 81.3427 82.9805 81.3969 83.4605 80.3661C85.3045 76.4054 86.9338 71.7801 88.0958 67.2362C88.6894 64.9304 88.7399 64.8354 90.6092 61.9192C92.529 58.9352 94.6382 56.2224 97.1011 53.6045C98.0357 52.6144 98.8188 51.8141 98.8441 51.8412C98.8693 51.8819 98.6925 52.7229 98.4399 53.7266ZM65.3867 54.6354C67.9506 57.6059 69.9083 60.2508 71.9922 63.6011C73.0153 65.2423 73.0532 65.3373 73.5837 67.399C74.7077 71.7937 76.2234 76.0799 77.9537 79.8235C78.6863 81.3969 78.6484 81.3698 77.4864 79.5522C75.3014 76.107 73.129 73.2722 70.3251 70.1932L68.3421 68.0094L67.1928 65.5136C65.9929 62.8687 64.8688 59.9253 64.111 57.4296C63.6311 55.829 62.7722 52.4109 62.7722 52.1125C62.7722 51.8412 63.9594 52.9942 65.3867 54.6354ZM37.5749 56.9006C39.6084 57.0091 42.5891 57.416 44.9005 57.9179C48.159 58.6232 47.8307 58.4468 48.9421 60.1559C51.2534 63.7096 54.1963 67.3176 57.3033 70.4373C57.8843 71.007 58.3264 71.4817 58.2885 71.4817C58.2506 71.4817 57.5559 71.2647 56.735 70.9934C52.5291 69.6235 46.1256 68.362 43.3343 68.362H42.7028L41.2503 66.6259C39.5074 64.5642 38.2064 62.828 36.9561 60.9019C35.9835 59.4235 34.4805 56.9141 34.4805 56.7649C34.4805 56.7242 34.8342 56.7242 35.2762 56.7514C35.7057 56.7921 36.7413 56.8599 37.5749 56.9006ZM127.06 56.7921C127.047 56.9955 125.443 59.5998 124.269 61.3495C123.056 63.1535 121.124 65.6764 119.709 67.3176L118.913 68.2264L116.893 68.4299C113.154 68.8096 109.087 69.6506 105.399 70.8035C104.502 71.0884 103.656 71.3732 103.543 71.4139C103.416 71.4682 104.502 70.2339 105.942 68.674C108.67 65.7306 110.754 63.1128 112.636 60.2237L113.748 58.5282L115.188 58.162C117.107 57.6601 120.012 57.1447 122.197 56.9141C124.142 56.7107 127.06 56.6429 127.06 56.7921ZM29.82 58.7588C31.424 61.2139 33.609 64.103 35.6046 66.4224C36.514 67.4804 37.2592 68.3756 37.2592 68.4027C37.2592 68.4299 36.7287 68.4977 36.0972 68.5519C33.3312 68.769 28.7717 69.6777 25.4752 70.6815L23.707 71.224L22.6081 69.9626C20.1074 67.087 17.9476 64.1844 16.0657 61.1461C15.712 60.5764 15.3963 60.0338 15.3837 59.9524C15.3331 59.7625 15.8131 59.5862 18.6296 58.7995C21.5219 57.9992 26.574 57.0498 28.317 56.982C28.6075 56.9684 28.7969 57.199 29.82 58.7588ZM136.785 57.3889C139.046 57.7551 142.153 58.474 144.376 59.1386C145.361 59.4506 146.22 59.7219 146.283 59.7625C146.334 59.8032 145.98 60.4814 145.475 61.2817C143.694 64.1437 141.345 67.2634 138.92 70.0304L137.859 71.224L136.217 70.7357C133.021 69.7998 128.588 68.9182 125.266 68.5655C124.787 68.5112 124.408 68.4299 124.408 68.3756C124.408 68.3349 124.812 67.8602 125.304 67.3447C127.388 65.1474 130.647 60.8612 132.44 57.9314L133.059 56.9413L134.07 57.0226C134.625 57.0769 135.851 57.2397 136.785 57.3889ZM55.7877 61.7971C58.7811 63.3027 62.8353 65.9477 65.7656 68.3078C67.0033 69.3115 67.2812 69.6099 68.0264 70.7764C70.0598 73.9368 72.4722 77.0294 75.3519 80.1355C76.5518 81.424 77.3475 82.3328 77.1327 82.1565C73.6847 79.3352 69.0368 76.3376 65.4119 74.5879L63.6184 73.7198L61.5597 71.5631C58.4779 68.362 56.4192 65.7713 54.31 62.4346C53.6784 61.458 53.1732 60.6171 53.1732 60.5764C53.1732 60.495 53.83 60.807 55.7877 61.7971ZM107.976 61.336C105.829 64.7541 103.517 67.7517 100.473 71.0206L98.0736 73.6113L95.5728 74.9134C94.1835 75.6323 92.3521 76.6631 91.4807 77.1921C90.0029 78.1009 86.2518 80.7323 84.8119 81.8717C84.3951 82.1972 84.6098 81.9395 85.4434 81.0849C88.02 78.4536 91.3038 74.303 93.552 70.8578C94.5372 69.3386 94.7519 69.0945 95.977 68.1179C98.6041 66.0155 100.385 64.7947 103.176 63.1399C104.603 62.299 108.165 60.495 108.405 60.495C108.456 60.495 108.266 60.8748 107.976 61.336ZM74.6699 76.9751C77.0191 79.715 80.4797 84.5166 80.2777 84.7472C80.1135 84.91 76.7033 80.9357 74.7204 78.2637C73.6468 76.8395 71.8028 74.1402 71.5628 73.6519C71.386 73.3129 73.1921 75.2389 74.6699 76.9751ZM89.1567 75.0355C87.8811 76.9887 86.7064 78.5892 85.0519 80.6373C83.5489 82.5092 81.2123 85.0592 81.2123 84.8421C81.2123 84.6387 83.4731 81.3562 84.8624 79.5387C86.2644 77.694 89.9271 73.4621 90.0156 73.5706C90.0534 73.5977 89.6619 74.2623 89.1567 75.0355Z" fill="white"/>
</g>
<path d="M34.232 119.991C34.232 117.399 34.096 115.031 33.824 112.887C33.824 112.551 34.056 112.383 34.52 112.383C34.984 112.383 35.6 112.831 36.368 113.727C37.136 114.607 37.872 115.575 38.576 116.631C39.28 117.687 39.984 118.663 40.688 119.559C41.408 120.439 41.92 120.879 42.224 120.879C42.528 120.879 43.016 120.415 43.688 119.487C44.376 118.543 45.048 117.519 45.704 116.415C46.376 115.295 47.096 114.271 47.864 113.343C48.648 112.399 49.272 111.927 49.736 111.927C50.216 111.927 50.456 112.055 50.456 112.311C50.6 114.279 50.672 116.039 50.672 117.591C50.672 119.143 50.664 120.407 50.648 121.383C50.632 122.343 50.616 123.047 50.6 123.495C50.6 123.927 50.576 124.927 50.528 126.495C50.48 128.047 50.456 128.959 50.456 129.231C50.216 129.567 49.888 129.735 49.472 129.735C49.296 129.735 49.128 129.687 48.968 129.591C48.872 127.623 48.824 125.303 48.824 122.631C48.824 119.959 48.848 117.191 48.896 114.327C48.576 114.583 48.12 115.183 47.528 116.127C46.952 117.055 46.392 117.983 45.848 118.911C45.304 119.823 44.688 120.655 44 121.407C43.312 122.143 42.672 122.511 42.08 122.511C41.488 122.511 40.808 122.079 40.04 121.215C39.288 120.351 38.448 119.183 37.52 117.711C36.608 116.223 36.008 115.295 35.72 114.927C35.8 116.271 35.84 117.671 35.84 119.127C35.84 120.567 35.832 121.575 35.816 122.151C35.8 124.711 35.752 127.039 35.672 129.135C35.416 129.471 35.016 129.639 34.472 129.639C34.328 129.639 34.192 129.615 34.064 129.567C34.064 129.567 34.12 126.375 34.232 119.991ZM61.3839 112.311L65.0799 112.383C66.3119 112.383 67.1599 112.527 67.6239 112.815C67.5759 113.263 67.4079 113.559 67.1199 113.703C66.8319 113.847 66.4159 113.919 65.8719 113.919L60.6879 113.847C59.3759 113.847 58.2719 113.887 57.3759 113.967C57.1999 114.863 57.1119 116.151 57.1119 117.831L57.1359 118.911C57.1359 119.375 57.1279 119.871 57.1119 120.399C57.8479 120.527 58.8079 120.591 59.9919 120.591L62.8479 120.567C63.9359 120.567 64.5599 120.623 64.7199 120.735C64.8799 120.847 64.9599 120.967 64.9599 121.095C64.9599 121.703 64.1839 122.007 62.6319 122.007L57.1839 121.839C57.1679 122.223 57.1519 122.879 57.1359 123.807C57.1039 125.743 57.0319 127.207 56.9199 128.199C57.9439 128.263 58.6799 128.295 59.1279 128.295C59.5759 128.295 60.0399 128.287 60.5199 128.271C60.9999 128.255 61.8959 128.207 63.2079 128.127C64.5199 128.047 65.4959 128.007 66.1359 128.007C66.7919 128.007 67.2399 128.055 67.4799 128.151C67.7199 128.231 67.8399 128.423 67.8399 128.727C67.8399 128.919 67.7839 129.055 67.6719 129.135C67.5759 129.199 67.4879 129.255 67.4079 129.303C67.3279 129.335 67.2239 129.367 67.0959 129.399C66.9839 129.415 66.8799 129.431 66.7839 129.447C66.7039 129.463 66.5839 129.479 66.4239 129.495C66.2799 129.495 66.1599 129.503 66.0639 129.519C65.9839 129.519 65.8719 129.519 65.7279 129.519H65.3919C62.2559 129.663 60.2479 129.735 59.3679 129.735C56.7279 129.735 55.4079 129.367 55.4079 128.631C55.3759 127.143 55.3599 125.727 55.3599 124.383C55.3599 119.951 55.5039 116.263 55.7919 113.319C56.1279 112.791 57.1039 112.487 58.7199 112.407C59.7279 112.343 60.6159 112.311 61.3839 112.311ZM72.8291 124.935L72.9011 128.559C72.9011 129.055 72.7891 129.391 72.5651 129.567C72.3411 129.743 72.1331 129.831 71.9411 129.831C71.7491 129.831 71.5651 129.807 71.3891 129.759C71.1811 128.047 71.0771 126.375 71.0771 124.743C71.0771 123.111 71.1251 121.263 71.2211 119.199C71.3331 117.135 71.3971 115.503 71.4131 114.303C71.4131 113.023 73.1251 112.383 76.5491 112.383C78.3571 112.383 80.0611 112.759 81.6611 113.511C82.4931 113.895 83.1731 114.439 83.7011 115.143C84.2291 115.831 84.4931 116.607 84.4931 117.471C84.4931 118.319 84.3011 119.087 83.9171 119.775C83.5331 120.463 83.0451 121.039 82.4531 121.503C81.8611 121.951 81.1811 122.343 80.4131 122.679C79.1491 123.255 77.7411 123.639 76.1891 123.831C76.9571 124.263 78.2051 125.303 79.9331 126.951C80.4451 127.447 81.0931 127.895 81.8771 128.295C82.6611 128.679 83.4691 128.871 84.3011 128.871C84.3811 128.871 84.5491 128.855 84.8051 128.823C85.0611 128.775 85.2771 128.743 85.4531 128.727C85.6291 128.711 85.7891 128.751 85.9331 128.847C86.0931 128.927 86.1731 129.079 86.1731 129.303C86.1731 129.847 85.4931 130.119 84.1331 130.119C82.5491 130.119 80.9731 129.511 79.4051 128.295C78.7171 127.783 78.0451 127.255 77.3891 126.711C75.7731 125.351 74.2611 124.495 72.8531 124.143C72.8371 124.287 72.8291 124.551 72.8291 124.935ZM82.6931 117.759C82.6931 116.415 82.0851 115.407 80.8691 114.735C79.6691 114.047 78.1411 113.703 76.2851 113.703C75.1171 113.703 74.0291 113.831 73.0211 114.087C73.0211 115.351 72.9811 116.759 72.9011 118.311C72.8211 119.847 72.7811 120.903 72.7811 121.479C72.7811 122.055 72.7891 122.479 72.8051 122.751C75.1731 122.575 77.0051 122.295 78.3011 121.911C79.6931 121.511 80.7331 121.015 81.4211 120.423C82.2691 119.687 82.6931 118.799 82.6931 117.759ZM102.454 129.423C102.198 129.775 101.83 129.951 101.35 129.951C101.222 129.951 101.094 129.935 100.966 129.903C100.614 129.103 100.35 127.975 100.174 126.519C100.014 125.047 99.8937 124.079 99.8137 123.615C98.0697 123.551 96.3257 123.519 94.5817 123.519C92.8377 123.519 91.2777 123.591 89.9017 123.735C89.7577 124.391 89.5977 125.375 89.4217 126.687C89.2617 127.983 89.1417 128.855 89.0617 129.303C88.4857 129.767 87.9657 129.831 87.5017 129.495C87.5497 129.111 87.6217 128.503 87.7177 127.671C87.8137 126.839 87.8937 126.135 87.9577 125.559C88.0377 124.967 88.1497 124.223 88.2937 123.327C88.4377 122.431 88.5737 121.663 88.7017 121.023C88.8457 120.367 89.0377 119.639 89.2777 118.839C89.5177 118.023 89.7657 117.327 90.0217 116.751C90.2777 116.175 90.5897 115.591 90.9577 114.999C91.3417 114.407 91.7497 113.927 92.1817 113.559C93.1737 112.743 94.2537 112.335 95.4217 112.335C96.5897 112.335 97.5577 112.783 98.3257 113.679C99.1097 114.575 99.7017 115.751 100.102 117.207C100.502 118.663 100.822 120.127 101.062 121.599C101.302 123.071 101.534 124.575 101.758 126.111C101.982 127.647 102.214 128.751 102.454 129.423ZM97.9897 116.103C97.6857 115.319 97.2937 114.711 96.8137 114.279C96.3337 113.831 95.7417 113.607 95.0377 113.607C94.3337 113.607 93.6537 113.951 92.9977 114.639C92.3417 115.327 91.8217 116.183 91.4377 117.207C90.7497 119.111 90.3177 120.871 90.1417 122.487C91.7417 122.311 93.3497 122.223 94.9657 122.223C96.5817 122.223 98.1417 122.271 99.6457 122.367C99.5817 122.127 99.4617 121.559 99.2857 120.663C99.1097 119.767 98.9257 118.983 98.7337 118.311C98.5577 117.623 98.3097 116.887 97.9897 116.103ZM107.766 112.599L107.838 118.239C107.838 119.039 107.814 119.815 107.766 120.567C109.174 120.007 110.422 119.343 111.51 118.575C112.614 117.791 113.462 117.055 114.054 116.367C114.646 115.663 115.158 115.007 115.59 114.399C116.038 113.775 116.422 113.279 116.742 112.911C117.078 112.543 117.39 112.359 117.678 112.359C117.966 112.359 118.246 112.463 118.518 112.671C117.862 114.319 116.934 115.743 115.734 116.943C114.55 118.127 113.046 119.335 111.222 120.567C112.07 120.999 112.87 121.615 113.622 122.415C114.39 123.199 115.022 123.975 115.518 124.743C116.91 126.871 118.214 128.391 119.43 129.303C119.158 129.719 118.758 129.927 118.23 129.927C117.718 129.927 117.094 129.519 116.358 128.703C115.622 127.871 114.942 126.951 114.318 125.943C113.694 124.935 112.982 123.959 112.182 123.015C111.382 122.055 110.646 121.479 109.974 121.287C109.846 121.335 109.518 121.487 108.99 121.743C108.478 121.983 108.07 122.151 107.766 122.247C107.766 124.951 107.726 127.223 107.646 129.063C107.358 129.351 106.838 129.495 106.086 129.495C106.054 129.015 106.038 127.919 106.038 126.207L106.134 113.079C106.326 112.727 106.686 112.551 107.214 112.551C107.39 112.551 107.574 112.567 107.766 112.599ZM124.051 112.647C123.891 119.879 123.803 125.527 123.787 129.591C123.547 129.847 123.331 129.975 123.139 129.975C122.963 129.975 122.811 129.935 122.683 129.855C122.315 129.615 122.131 129.167 122.131 128.511C122.163 120.815 122.219 116.311 122.299 114.999C122.379 113.687 122.499 112.927 122.659 112.719C122.819 112.511 123.011 112.407 123.235 112.407C123.459 112.407 123.731 112.487 124.051 112.647Z" fill="white"/>
<path d="M44.818 135.205C44.818 134.757 46.4233 134.533 49.634 134.533C50.3713 134.533 51.3187 134.566 52.476 134.631C53.6333 134.687 54.2307 134.771 54.268 134.883C54.2493 135.303 53.862 135.513 53.106 135.513C52.8913 135.513 52.532 135.49 52.028 135.443C51.524 135.396 51.09 135.373 50.726 135.373C50.3713 135.373 50.194 135.452 50.194 135.611C50.194 137.618 50.1473 140.609 50.054 144.585C49.858 144.725 49.5687 144.795 49.186 144.795C49.1767 144.384 49.172 143.894 49.172 143.325L49.242 137.277C49.242 136.549 49.2327 135.938 49.214 135.443C49.018 135.424 48.7613 135.415 48.444 135.415C48.136 135.415 47.6507 135.443 46.988 135.499C46.3253 135.546 45.8587 135.569 45.588 135.569C45.0747 135.569 44.818 135.448 44.818 135.205ZM59.1054 134.491L61.2614 134.533C61.9801 134.533 62.4748 134.617 62.7454 134.785C62.7174 135.046 62.6194 135.219 62.4514 135.303C62.2834 135.387 62.0408 135.429 61.7234 135.429L58.6994 135.387C57.9341 135.387 57.2901 135.41 56.7674 135.457C56.6648 135.98 56.6134 136.731 56.6134 137.711L56.6274 138.341C56.6274 138.612 56.6228 138.901 56.6134 139.209C57.0428 139.284 57.6028 139.321 58.2934 139.321L59.9594 139.307C60.5941 139.307 60.9581 139.34 61.0514 139.405C61.1448 139.47 61.1914 139.54 61.1914 139.615C61.1914 139.97 60.7388 140.147 59.8334 140.147L56.6554 140.049C56.6461 140.273 56.6368 140.656 56.6274 141.197C56.6088 142.326 56.5668 143.18 56.5014 143.759C57.0988 143.796 57.5281 143.815 57.7894 143.815C58.0508 143.815 58.3214 143.81 58.6014 143.801C58.8814 143.792 59.4041 143.764 60.1694 143.717C60.9348 143.67 61.5041 143.647 61.8774 143.647C62.2601 143.647 62.5214 143.675 62.6614 143.731C62.8014 143.778 62.8714 143.89 62.8714 144.067C62.8714 144.179 62.8388 144.258 62.7734 144.305C62.7174 144.342 62.6661 144.375 62.6194 144.403C62.5728 144.422 62.5121 144.44 62.4374 144.459C62.3721 144.468 62.3114 144.478 62.2554 144.487C62.2088 144.496 62.1388 144.506 62.0454 144.515C61.9614 144.515 61.8914 144.52 61.8354 144.529C61.7888 144.529 61.7234 144.529 61.6394 144.529H61.4434C59.6141 144.613 58.4428 144.655 57.9294 144.655C56.3894 144.655 55.6194 144.44 55.6194 144.011C55.6008 143.143 55.5914 142.317 55.5914 141.533C55.5914 138.948 55.6754 136.796 55.8434 135.079C56.0394 134.771 56.6088 134.594 57.5514 134.547C58.1394 134.51 58.6574 134.491 59.1054 134.491ZM65.7818 141.855L65.8238 143.969C65.8238 144.258 65.7585 144.454 65.6278 144.557C65.4971 144.66 65.3758 144.711 65.2638 144.711C65.1518 144.711 65.0445 144.697 64.9418 144.669C64.8205 143.67 64.7598 142.695 64.7598 141.743C64.7598 140.791 64.7878 139.713 64.8438 138.509C64.9091 137.305 64.9465 136.353 64.9558 135.653C64.9558 134.906 65.9545 134.533 67.9518 134.533C69.0065 134.533 70.0005 134.752 70.9338 135.191C71.4191 135.415 71.8158 135.732 72.1238 136.143C72.4318 136.544 72.5858 136.997 72.5858 137.501C72.5858 137.996 72.4738 138.444 72.2498 138.845C72.0258 139.246 71.7411 139.582 71.3958 139.853C71.0505 140.114 70.6538 140.343 70.2058 140.539C69.4685 140.875 68.6471 141.099 67.7418 141.211C68.1898 141.463 68.9178 142.07 69.9258 143.031C70.2245 143.32 70.6025 143.582 71.0598 143.815C71.5171 144.039 71.9885 144.151 72.4738 144.151C72.5205 144.151 72.6185 144.142 72.7678 144.123C72.9171 144.095 73.0431 144.076 73.1458 144.067C73.2485 144.058 73.3418 144.081 73.4258 144.137C73.5191 144.184 73.5658 144.272 73.5658 144.403C73.5658 144.72 73.1691 144.879 72.3758 144.879C71.4518 144.879 70.5325 144.524 69.6178 143.815C69.2165 143.516 68.8245 143.208 68.4418 142.891C67.4991 142.098 66.6171 141.598 65.7958 141.393C65.7865 141.477 65.7818 141.631 65.7818 141.855ZM71.5358 137.669C71.5358 136.885 71.1811 136.297 70.4718 135.905C69.7718 135.504 68.8805 135.303 67.7978 135.303C67.1165 135.303 66.4818 135.378 65.8938 135.527C65.8938 136.264 65.8705 137.086 65.8238 137.991C65.7771 138.887 65.7538 139.503 65.7538 139.839C65.7538 140.175 65.7585 140.422 65.7678 140.581C67.1491 140.478 68.2178 140.315 68.9738 140.091C69.7858 139.858 70.3925 139.568 70.7938 139.223C71.2885 138.794 71.5358 138.276 71.5358 137.669ZM83.0628 144.473C82.9135 144.678 82.6988 144.781 82.4188 144.781C82.3442 144.781 82.2695 144.772 82.1948 144.753C81.9895 144.286 81.8355 143.628 81.7328 142.779C81.6395 141.92 81.5695 141.356 81.5228 141.085C80.5055 141.048 79.4882 141.029 78.4708 141.029C77.4535 141.029 76.5435 141.071 75.7408 141.155C75.6568 141.538 75.5635 142.112 75.4608 142.877C75.3675 143.633 75.2975 144.142 75.2508 144.403C74.9148 144.674 74.6115 144.711 74.3408 144.515C74.3688 144.291 74.4108 143.936 74.4668 143.451C74.5228 142.966 74.5695 142.555 74.6068 142.219C74.6535 141.874 74.7188 141.44 74.8028 140.917C74.8868 140.394 74.9662 139.946 75.0408 139.573C75.1248 139.19 75.2368 138.766 75.3768 138.299C75.5168 137.823 75.6615 137.417 75.8108 137.081C75.9602 136.745 76.1422 136.404 76.3568 136.059C76.5808 135.714 76.8188 135.434 77.0708 135.219C77.6495 134.743 78.2795 134.505 78.9608 134.505C79.6422 134.505 80.2068 134.766 80.6548 135.289C81.1122 135.812 81.4575 136.498 81.6908 137.347C81.9242 138.196 82.1108 139.05 82.2508 139.909C82.3908 140.768 82.5262 141.645 82.6568 142.541C82.7875 143.437 82.9228 144.081 83.0628 144.473ZM80.4588 136.703C80.2815 136.246 80.0528 135.891 79.7728 135.639C79.4928 135.378 79.1475 135.247 78.7368 135.247C78.3262 135.247 77.9295 135.448 77.5468 135.849C77.1642 136.25 76.8608 136.75 76.6368 137.347C76.2355 138.458 75.9835 139.484 75.8808 140.427C76.8142 140.324 77.7522 140.273 78.6948 140.273C79.6375 140.273 80.5475 140.301 81.4248 140.357C81.3875 140.217 81.3175 139.886 81.2148 139.363C81.1122 138.84 81.0048 138.383 80.8928 137.991C80.7902 137.59 80.6455 137.16 80.4588 136.703ZM85.1815 140.035C85.1815 138.579 85.1209 137.296 84.9995 136.185C84.9995 135.896 85.1209 135.644 85.3635 135.429C85.6062 135.214 85.9282 135.051 86.3295 134.939C87.1322 134.734 88.0142 134.631 88.9755 134.631C90.2169 134.631 91.1922 134.906 91.9015 135.457C92.6202 135.998 92.9795 136.834 92.9795 137.963C92.9795 139.092 92.5222 139.998 91.6075 140.679C90.6929 141.36 89.5775 141.701 88.2615 141.701C87.5895 141.701 86.8849 141.561 86.1475 141.281C86.1009 141.729 86.0775 142.336 86.0775 143.101L86.0915 143.787C86.0915 144.011 86.0869 144.244 86.0775 144.487C86.0309 144.552 85.9795 144.599 85.9235 144.627C85.8675 144.655 85.8255 144.674 85.7975 144.683C85.7789 144.702 85.7462 144.716 85.6995 144.725C85.6529 144.734 85.6202 144.739 85.6015 144.739C85.5455 144.758 85.4802 144.767 85.4055 144.767H85.1675C85.1489 144.067 85.1395 143.437 85.1395 142.877L85.1815 140.035ZM86.1195 140.273C86.8009 140.73 87.6175 140.959 88.5695 140.959C89.5215 140.95 90.3242 140.656 90.9775 140.077C91.6309 139.489 91.9575 138.77 91.9575 137.921C91.9575 137.072 91.6215 136.437 90.9495 136.017C90.2775 135.597 89.4702 135.387 88.5275 135.387C87.5942 135.387 86.7682 135.602 86.0495 136.031C86.0962 136.638 86.1195 138.052 86.1195 140.273ZM96.0441 134.687C95.9508 138.906 95.8994 142.2 95.8901 144.571C95.7501 144.72 95.6241 144.795 95.5121 144.795C95.4094 144.795 95.3208 144.772 95.2461 144.725C95.0314 144.585 94.9241 144.324 94.9241 143.941C94.9428 139.452 94.9754 136.824 95.0221 136.059C95.0688 135.294 95.1388 134.85 95.2321 134.729C95.3254 134.608 95.4374 134.547 95.5681 134.547C95.6988 134.547 95.8574 134.594 96.0441 134.687ZM106.854 144.473C106.705 144.678 106.49 144.781 106.21 144.781C106.135 144.781 106.061 144.772 105.986 144.753C105.781 144.286 105.627 143.628 105.524 142.779C105.431 141.92 105.361 141.356 105.314 141.085C104.297 141.048 103.279 141.029 102.262 141.029C101.245 141.029 100.335 141.071 99.5321 141.155C99.4481 141.538 99.3547 142.112 99.2521 142.877C99.1587 143.633 99.0887 144.142 99.0421 144.403C98.7061 144.674 98.4027 144.711 98.1321 144.515C98.1601 144.291 98.2021 143.936 98.2581 143.451C98.3141 142.966 98.3607 142.555 98.3981 142.219C98.4447 141.874 98.5101 141.44 98.5941 140.917C98.6781 140.394 98.7574 139.946 98.8321 139.573C98.9161 139.19 99.0281 138.766 99.1681 138.299C99.3081 137.823 99.4527 137.417 99.6021 137.081C99.7514 136.745 99.9334 136.404 100.148 136.059C100.372 135.714 100.61 135.434 100.862 135.219C101.441 134.743 102.071 134.505 102.752 134.505C103.433 134.505 103.998 134.766 104.446 135.289C104.903 135.812 105.249 136.498 105.482 137.347C105.715 138.196 105.902 139.05 106.042 139.909C106.182 140.768 106.317 141.645 106.448 142.541C106.579 143.437 106.714 144.081 106.854 144.473ZM104.25 136.703C104.073 136.246 103.844 135.891 103.564 135.639C103.284 135.378 102.939 135.247 102.528 135.247C102.117 135.247 101.721 135.448 101.338 135.849C100.955 136.25 100.652 136.75 100.428 137.347C100.027 138.458 99.7747 139.484 99.6721 140.427C100.605 140.324 101.543 140.273 102.486 140.273C103.429 140.273 104.339 140.301 105.216 140.357C105.179 140.217 105.109 139.886 105.006 139.363C104.903 138.84 104.796 138.383 104.684 137.991C104.581 137.59 104.437 137.16 104.25 136.703Z" fill="white"/>
<defs>
<clipPath id="clip0">
<rect width="161.667" height="102.543" fill="white"/>
</clipPath>
</defs>
</svg>
