<svg width="117" height="74" viewBox="0 0 117 74" fill="none" xmlns="http://www.w3.org/2000/svg">
<path d="M47.2865 1.6444C45.4818 4.98223 43.9779 9.02483 42.9662 13.3023C42.7474 14.242 42.556 15.0251 42.5378 15.0349C42.5196 15.0545 42.1823 14.8097 41.7813 14.5063C39.2474 12.5095 36.3855 10.6888 33.5508 9.25974C32.4935 8.72138 29.2487 7.41953 29.1758 7.48805C29.0938 7.57615 28.6016 10.6497 28.474 11.8439C28.1732 14.7412 28.2097 19.5767 28.5651 22.6796C28.6198 23.2375 28.6654 23.6878 28.6472 23.6878C28.6381 23.6878 28.2644 23.5801 27.8269 23.4333C24.9649 22.5425 21.9935 21.9063 19.1224 21.5833C17.5092 21.4071 13.6719 21.3777 13.6719 21.5441C13.6719 21.6029 13.7722 22.3174 13.8998 23.1396C14.4831 26.8494 15.6954 30.8235 17.5092 34.9836C17.9102 35.9037 18.2657 36.7063 18.2839 36.765C18.3204 36.8433 18.0196 36.9021 17.3451 36.9412C14.2279 37.1566 10.6732 37.7928 7.77478 38.664C6.5352 39.0359 3.77348 40.0735 3.61853 40.2301C3.57296 40.2693 3.87374 40.9349 4.28389 41.7082C6.10681 45.1537 8.37634 48.2664 11.4662 51.565L12.8698 53.0529L12.3868 53.2682C8.52218 54.991 4.11983 57.8589 1.16671 60.5801L0.00915527 61.647L1.19405 62.7433C6.19796 67.3634 13.6628 71.2201 20.8177 72.8743C24.6185 73.7552 29.3217 74.1859 32.0834 73.9119C41.0977 73.0211 49.8112 69.1547 57.0118 62.8608C57.4128 62.5084 57.8047 62.156 57.8776 62.0679C58.0326 61.9015 58.1875 61.8037 56.4467 63.0468C47.569 69.4484 36.9414 72.3457 27.7357 70.8677C22.4766 70.0259 17.1263 67.9312 12.3047 64.8185C10.8737 63.8984 8.02999 61.7939 8.02087 61.6568C8.02087 61.5589 10.181 59.9047 11.3659 59.1119C12.6784 58.2211 14.4193 57.1836 15.6133 56.5669L16.4154 56.1558L16.7982 56.4592C17.5638 57.0759 19.7605 58.6127 20.7357 59.2391C25.9219 62.5182 30.1784 64.055 36.2761 64.8576C37.9349 65.073 42.7383 65.1513 44.543 65.0045C47.5052 64.75 50.4401 64.2214 53.1381 63.4677C54.3868 63.1153 57.7318 61.9603 57.668 61.9015C57.6498 61.882 57.0847 62.019 56.4011 62.205C52.2995 63.3111 48.28 63.7907 43.9779 63.6928C37.7891 63.546 32.5756 62.2539 27.6628 59.6502C25.4844 58.4952 22.9961 56.792 21.0547 55.1378L20.28 54.482L21.3737 54.1002C23.6342 53.3074 26.3503 52.6613 28.7748 52.3285L29.8868 52.1719L30.698 52.7984C33.9701 55.3336 38.181 57.5947 42.4558 59.1119C45.7735 60.2963 49.4467 61.1185 52.9558 61.4709C54.3868 61.6079 58.0326 61.696 57.0118 61.5589C56.6107 61.51 55.6446 61.3828 54.8698 61.2653C48.3894 60.355 41.8177 57.8198 36.6498 54.2568C35.4193 53.415 33.7969 52.1328 33.8972 52.0936C34.0977 52.0251 37.224 52.397 38.7552 52.6711C40.4961 52.9843 42.6198 53.5227 44.306 54.0709C45.2448 54.3743 45.4727 54.5015 46.3568 55.1672C49.1732 57.2814 52.6641 59.3076 55.7357 60.6193C56.9297 61.1283 57.8321 61.4806 57.7774 61.4317C57.75 61.4023 56.9571 60.9619 56 60.4529C55.0521 59.9439 53.7852 59.2195 53.1836 58.828C51.8529 57.9862 49.3008 56.1558 49.3646 56.097C49.3829 56.0677 50.3581 56.5669 51.5248 57.1933C53.5938 58.3092 55.7904 59.6992 57.2396 60.8052C57.6407 61.1087 57.9688 61.3142 57.9688 61.2653C57.9688 61.2066 58.0052 61.187 58.0508 61.2164C58.0873 61.2457 57.8321 60.5507 57.4675 59.6796C56.4649 57.2619 55.5899 54.619 54.9701 52.1328C54.8607 51.7119 54.7878 51.3497 54.806 51.3301C54.8607 51.2714 55.7266 53.2878 56.2735 54.7463C56.8659 56.3418 57.3217 57.7513 57.8412 59.66L58.2422 61.1283L58.1693 60.1005C58.0052 57.5555 58.142 49.9695 58.3425 50.7232C58.5886 51.6923 58.6706 57.5555 58.4701 60.3941L58.4245 61.0304L58.7253 59.9047C59.418 57.3695 60.3842 54.5211 61.2045 52.6124C61.3868 52.1817 61.6055 51.6825 61.6784 51.4965C61.961 50.8015 61.8698 51.3301 61.4414 52.9648C60.7579 55.5293 59.8829 58.0939 58.9623 60.1886C58.7162 60.7465 58.543 61.2457 58.5886 61.2947C58.625 61.3338 58.9167 61.1772 59.2357 60.9227C61.1589 59.4153 65.1875 56.9584 67.0378 56.146L67.4024 55.9894L67.1745 56.1851C66.7735 56.5277 64.1576 58.3875 63.3008 58.9259C62.8542 59.2195 61.6784 59.8851 60.7032 60.4235C58.7526 61.4904 58.7526 61.5198 60.7032 60.6878C64.2852 59.1608 68.0131 56.9682 70.8933 54.6875C71.431 54.2666 72.7253 53.8066 75.0586 53.1997C77.4649 52.5732 81.0287 52.0251 82.2592 52.0936L82.7969 52.123L81.53 53.0627C75.4779 57.5555 68.1133 60.5214 60.8855 61.373C60.3568 61.4415 59.7006 61.5198 59.4271 61.5687C58.9532 61.6373 58.9623 61.647 59.7461 61.6568C60.9584 61.6666 63.4649 61.4904 65.1329 61.2751C72.6797 60.2865 80.0079 57.301 85.8776 52.8473C86.8985 52.0642 86.8256 52.074 88.7032 52.3677C90.9454 52.7103 93.1237 53.2584 95.4297 54.0513L96.3776 54.3841L95.7032 54.9616C92.2214 57.9373 87.7279 60.5605 84.1094 61.7156C80.1355 62.9783 76.7995 63.5166 72.3698 63.5949C67.694 63.683 64.3034 63.2817 60.1381 62.156C59.5547 61.9896 59.0443 61.8624 58.9987 61.8722C58.9623 61.8722 59.3177 62.0288 59.7917 62.205C69.8177 66.0812 81.7761 66.042 90.6628 62.1267C93.6159 60.8248 97.0157 58.7595 99.5951 56.7137C99.9597 56.4201 100.297 56.1851 100.352 56.1851C100.561 56.1851 103.378 57.8002 104.681 58.6616C106.458 59.8362 108.673 61.5394 108.6 61.6764C108.454 61.9211 105.392 64.1431 103.997 65.0142C97.681 68.9394 90.4805 71.1711 84.1276 71.1907C76.2709 71.2103 67.4024 68.1759 60.2201 63.0272C59.4818 62.4986 58.8985 62.1071 58.9258 62.156C58.9532 62.205 59.4545 62.665 60.0469 63.1642C66.8829 69.0568 74.931 72.6687 83.8086 73.8238C85.267 74.0097 89.3685 73.9804 91.1003 73.765C98.4375 72.8547 105.547 70.0748 111.836 65.6309C113.513 64.4563 114.133 63.9473 115.582 62.6161C116.421 61.8526 116.639 61.5981 116.548 61.5198C115.71 60.7074 114.342 59.5034 113.65 58.9552C110.979 56.8214 107.434 54.6875 104.143 53.2095L103.797 53.0529L105.191 51.5552C107.279 49.3235 109.102 47.0134 110.733 44.5174C111.581 43.2254 113.139 40.3182 113.039 40.2105C113.003 40.1812 112.365 39.8973 111.608 39.5939C108.154 38.2039 103.697 37.2447 99.3308 36.9412C98.7839 36.9119 98.3464 36.8727 98.3464 36.8531C98.3464 36.8433 98.6198 36.2267 98.948 35.473C100.434 32.1254 101.71 28.3177 102.348 25.342C102.612 24.1087 103.013 21.5148 102.949 21.4463C102.822 21.319 98.8204 21.4071 97.4805 21.5735C94.6459 21.9161 91.9662 22.474 89.4779 23.2473C88.694 23.492 88.0378 23.6878 88.0196 23.6878C88.0105 23.6878 88.0469 23.2179 88.1107 22.6306C88.448 19.4005 88.4844 14.9957 88.1836 12.0103C88.0743 10.8455 87.5547 7.55657 87.4727 7.47826C87.4271 7.41953 84.4649 8.58435 83.6172 8.98567C80.8099 10.3169 77.4649 12.4312 74.9766 14.428C74.53 14.7902 74.1563 15.0642 74.1381 15.0447C74.1198 15.0349 73.9467 14.3399 73.7461 13.5079C72.6797 9.05419 71.0391 4.66901 69.1888 1.35075L68.4414 -4.57764e-05L67.1927 1.10604C64.4219 3.55313 61.5235 7.04758 59.1719 10.7867C58.7435 11.4817 58.3698 12.0396 58.3334 12.0396C58.2969 12.0396 57.9141 11.4621 57.4766 10.7672C55.2891 7.27271 52.2631 3.62165 49.5834 1.23329C48.9089 0.626411 48.3164 0.107628 48.2618 0.0782623C48.2162 0.0488968 47.7696 0.753662 47.2865 1.6444ZM67.7123 9.80789C68.7787 12.2158 69.5352 14.3301 70.2644 16.924L70.6381 18.2357L69.4714 19.5179C67.9219 21.2211 66.4727 23.0222 65.3698 24.5981C64.8685 25.3029 64.4037 25.9881 64.3399 26.1055C64.267 26.2328 64.1849 26.3306 64.1576 26.3306C64.1302 26.3306 64.0573 26.0761 63.9935 25.7629C63.8112 24.8624 62.681 21.2994 62.1342 19.9095C61.8516 19.2047 61.3959 18.1378 61.1224 17.5211C60.8399 16.9142 60.612 16.3857 60.612 16.3367C60.612 16.2095 62.1706 13.9973 63.073 12.8619C63.793 11.9515 66.9649 8.41795 67.0651 8.41795C67.0834 8.41795 67.375 9.0444 67.7123 9.80789ZM51.1784 10.1015C52.7279 11.7851 54.0313 13.41 55.3073 15.2502L56.073 16.3563L55.4349 17.8441C54.3685 20.3402 53.4662 22.9243 52.8099 25.391C52.573 26.3209 52.5547 26.3502 52.4271 26.1447C52.0625 25.5672 50.6133 23.5312 49.9388 22.66C49.5196 22.1217 48.4623 20.8981 47.5873 19.9486L46.0013 18.2161L46.1654 17.5994C46.4844 16.3661 47.2227 14.056 47.724 12.7444C48.3802 10.9923 49.4922 8.51583 49.6198 8.51583C49.6745 8.51583 50.3763 9.23038 51.1784 10.1015ZM34.1706 15.3187C36.3581 16.3563 38.5 17.619 40.5235 19.0383L41.8086 19.9388L41.7357 20.6142C41.4714 23.1396 41.3985 26.6928 41.5717 29.1105C41.6172 29.8545 41.6446 30.4809 41.6263 30.5103C41.599 30.5299 41.198 30.2656 40.724 29.923C38.9193 28.582 35.8659 26.7613 33.6693 25.7238L32.931 25.3714L32.8763 24.8526C32.7487 23.6584 32.7032 20.5066 32.8034 18.8915C32.931 16.6695 33.1042 14.8783 33.1862 14.8783C33.2136 14.8783 33.6602 15.074 34.1706 15.3187ZM83.5261 15.0936C83.7631 16.2976 83.9362 22.337 83.7904 24.373C83.7266 25.3322 83.6993 25.4007 83.4896 25.5084C83.362 25.5769 82.4597 26.0468 81.4844 26.5656C79.5248 27.5836 77.7292 28.6896 76.0704 29.8838C75.1498 30.5396 74.9948 30.6277 75.0404 30.432C75.0677 30.3047 75.1407 29.2476 75.1954 28.0925C75.2865 25.9587 75.2136 23.0026 75.0131 21.1428C74.8672 19.7627 74.8034 19.9095 75.9063 19.1362C77.8842 17.756 80.0079 16.5031 81.9857 15.5439C82.7422 15.1817 83.3802 14.8881 83.4167 14.8783C83.4532 14.8783 83.5079 14.9761 83.5261 15.0936ZM59.3815 22.4642C60.3568 24.5883 61.0495 26.4383 61.6602 28.5037L62.0795 29.9328L61.7513 30.6277C60.7032 32.8693 59.3998 36.8042 58.78 39.5841C58.3334 41.5613 58.3151 41.6201 58.2696 41.3558C57.6133 37.9201 56.3008 33.7502 54.9519 30.8039C54.5052 29.8349 54.5052 29.8545 55.198 27.6423C55.9089 25.3322 56.9206 22.8362 57.9506 20.859C58.2513 20.2814 58.2787 20.2521 58.3972 20.4185C58.4701 20.5261 58.9076 21.4365 59.3815 22.4642ZM71.668 23.9031C72.0144 26.6732 72.142 29.5804 72.0235 31.7338L71.9414 33.1727L70.7019 34.5431C68.7422 36.7259 67.0378 39.0164 65.4427 41.6005C64.8321 42.5891 64.6954 42.7555 64.7409 42.4814C64.7774 42.2955 64.8685 41.4537 64.9597 40.6216C65.1511 38.7619 65.1875 33.1531 65.0052 31.4793L64.8959 30.4222L65.2331 29.9132C66.3269 28.2883 67.5118 26.8298 69.3256 24.882C70.4467 23.6878 71.4037 22.709 71.4401 22.709C71.4857 22.709 71.5951 23.2473 71.668 23.9031ZM46.1927 23.7759C48.0612 25.6357 49.5013 27.3291 50.9232 29.3357L51.7344 30.4907L51.625 31.7632C51.3881 34.4158 51.5065 39.7701 51.862 42.1291C51.9076 42.4521 51.9349 42.7261 51.9258 42.7457C51.9076 42.7555 51.5704 42.2269 51.1784 41.5711C49.6289 39.0359 47.7513 36.5301 45.7188 34.3082L44.6433 33.1433L44.5704 31.4206C44.5065 29.8545 44.5795 26.7418 44.698 25.7238C44.944 23.5997 45.0625 22.8068 45.1355 22.8068C45.181 22.8068 45.655 23.2473 46.1927 23.7759ZM22.4219 27.1235C24.2084 27.3095 26.2683 27.6912 28.2826 28.21C29.2487 28.4547 29.4675 28.5428 29.5313 28.719C29.5769 28.8267 29.75 29.5216 29.9323 30.246C30.4792 32.5071 31.2539 34.8759 32.211 37.2349C32.4935 37.9298 32.7123 38.5172 32.694 38.5367C32.6758 38.5563 32.2748 38.4584 31.8008 38.3214C29.5951 37.6851 26.6329 37.1859 23.6706 36.9412L22.8685 36.8825L22.6407 36.3246C22.1302 35.1206 21.3282 32.8693 20.9271 31.5576C20.517 30.2068 19.7787 27.2899 19.7787 27.0256C19.7787 26.8886 20.3347 26.9082 22.4219 27.1235ZM96.8881 26.9767C96.8881 27.006 96.7422 27.6423 96.569 28.3862C95.9857 30.8627 95.056 33.7209 93.9167 36.4812C93.7162 36.951 93.862 36.9119 91.8568 37.0978C89.6602 37.3034 87.0443 37.783 84.9297 38.3605C84.3829 38.5172 83.9454 38.6248 83.9454 38.615C83.9454 38.5955 84.1459 38.0963 84.392 37.4992C85.3946 35.0912 86.3789 32.047 86.9167 29.688C87.0534 29.1007 87.2084 28.582 87.2631 28.5134C87.3633 28.396 89.6693 27.8185 91.0547 27.564C91.9388 27.3976 94.6094 27.0354 95.293 26.9865C96.1407 26.9277 96.8881 26.9179 96.8881 26.9767ZM82.8516 31.2836C82.3503 33.7111 81.7852 35.6981 80.9284 37.9984C80.2995 39.7113 80.1537 40.0343 79.9987 40.0343C79.78 40.0343 76.599 41.7865 75.3321 42.5989C73.7826 43.5973 72.6797 44.3902 71.4037 45.4179C70.875 45.8486 70.4284 46.201 70.4102 46.201C70.392 46.201 70.7565 45.3494 71.2305 44.3119C72.5065 41.483 73.4636 38.7619 74.1472 35.9918C74.375 35.0619 74.5118 34.6899 74.6667 34.5529C74.9948 34.269 76.9636 32.9672 77.9753 32.3701C79.4063 31.5185 83.0065 29.7957 83.1068 29.9034C83.125 29.9132 83.0065 30.5396 82.8516 31.2836ZM34.836 30.5005C37.0508 31.5087 39.3842 32.8203 41.3529 34.1809C42.1185 34.7095 42.2097 34.8074 42.2917 35.1695C43.1211 38.6248 44.1329 41.5711 45.5547 44.6642C45.9375 45.5158 46.2474 46.201 46.2383 46.201C46.2201 46.201 45.7461 45.8291 45.1901 45.3788C42.9297 43.5777 40.6237 42.0899 37.9896 40.7195C36.75 40.0735 36.3672 39.8386 36.2943 39.6428C36.2396 39.5058 36.0118 38.9087 35.7748 38.3214C35.2279 36.9216 34.4532 34.4354 34.0886 32.8888C33.6875 31.1857 33.4597 29.9523 33.5508 29.9523C33.5873 29.9523 34.1615 30.197 34.836 30.5005ZM55.0521 37C56.0821 39.6037 56.8386 42.1095 57.4219 44.8013C57.6771 46.015 57.6862 46.0933 57.5769 46.9841C57.431 48.2859 57.431 55.0203 57.586 56.4298C57.6498 57.0172 57.7227 57.6828 57.75 57.8981C57.7683 58.1134 57.6498 57.7121 57.4857 57.0172C56.6381 53.5325 55.444 49.9793 54.2318 47.3756C53.8399 46.5436 53.6849 45.555 53.4935 42.6283C53.3386 40.2986 53.4753 35.5806 53.7396 34.3571C53.7852 34.1418 53.8399 34.2103 54.1589 34.8955C54.3685 35.3261 54.7696 36.2756 55.0521 37ZM62.9271 34.7682C63.2735 38.3703 63.2461 41.9235 62.8451 45.4669C62.7175 46.573 62.6719 46.7394 62.125 48.0216C60.9401 50.8113 59.9467 53.787 59.2448 56.6941C59.0443 57.5164 58.8985 57.996 58.9258 57.7513C58.944 57.5066 59.017 56.8214 59.0808 56.2341C59.2357 54.756 59.2357 49.0005 59.0808 47.1309L58.9532 45.6627L59.3815 43.8518C59.8829 41.7277 60.5118 39.6428 61.1954 37.8515C61.806 36.2463 62.7084 34.1613 62.7995 34.1613C62.836 34.1613 62.8998 34.4354 62.9271 34.7682ZM71.0391 38.7716C70.6198 40.514 69.7722 43.196 69.1342 44.8306C68.4141 46.6806 67.1745 49.3235 66.9831 49.441C66.7461 49.5682 64.4948 52.1915 63.4558 53.5227C62.3894 54.9029 61.487 56.1851 60.6667 57.5066C59.9193 58.7007 59.8829 58.7399 60.2292 57.996C61.5599 55.1378 62.7357 51.8 63.5743 48.5209C64.0026 46.8568 64.0391 46.7883 65.3881 44.6838C66.7735 42.5304 68.2956 40.5727 70.073 38.6836C70.7474 37.969 71.3125 37.3915 71.3308 37.4111C71.349 37.4404 71.2214 38.0473 71.0391 38.7716ZM47.1862 39.4275C49.0365 41.5711 50.4493 43.4798 51.9532 45.8976C52.6914 47.082 52.7188 47.1505 53.1016 48.6383C53.9128 51.8097 55.0065 54.9029 56.2552 57.6045C56.7839 58.7399 56.7565 58.7203 55.918 57.4087C54.3412 54.9224 52.7735 52.8767 50.75 50.6547L49.319 49.0788L48.4896 47.2777C47.6237 45.369 46.8125 43.2449 46.2657 41.4439C45.9193 40.2888 45.2995 37.8222 45.2995 37.6068C45.2995 37.4111 46.1563 38.2431 47.1862 39.4275ZM27.1159 41.0621C28.5834 41.1404 30.7344 41.4341 32.4024 41.7963C34.7539 42.3052 34.517 42.178 35.319 43.4113C36.987 45.9759 39.1107 48.5796 41.3529 50.8309C41.7722 51.242 42.0912 51.5846 42.0638 51.5846C42.0365 51.5846 41.5352 51.428 40.9427 51.2322C37.9076 50.2436 33.2865 49.3333 31.2722 49.3333H30.8164L29.7683 48.0804C28.5105 46.5925 27.5717 45.3396 26.6693 43.9497C25.9675 42.8828 24.8829 41.0719 24.8829 40.9642C24.8829 40.9349 25.1381 40.9349 25.4571 40.9545C25.767 40.9838 26.5144 41.0328 27.1159 41.0621ZM91.6927 40.9838C91.6836 41.1306 90.5261 43.01 89.6784 44.2727C88.8034 45.5746 87.4089 47.3952 86.3881 48.5796L85.8138 49.2354L84.3555 49.3822C81.6576 49.6563 78.7227 50.2632 76.0612 51.0952C75.4141 51.3007 74.8034 51.5063 74.7214 51.5357C74.6302 51.5748 75.4141 50.6841 76.4532 49.5584C78.4219 47.4343 79.9258 45.5452 81.2839 43.4603L82.086 42.2367L83.125 41.9724C84.5105 41.6103 86.6068 41.2383 88.1836 41.0719C89.5873 40.9251 91.6927 40.8761 91.6927 40.9838ZM21.5196 42.4031C22.6771 44.1748 24.2539 46.2597 25.694 47.9336C26.3503 48.697 26.8881 49.3431 26.8881 49.3627C26.8881 49.3822 26.5052 49.4312 26.0495 49.4703C24.0534 49.6269 20.7631 50.2828 18.3842 51.0071L17.1081 51.3986L16.3151 50.4883C14.5105 48.4132 12.9519 46.3185 11.5938 44.1259C11.3386 43.7148 11.1107 43.3232 11.1016 43.2645C11.0651 43.1275 11.4115 43.0002 13.4441 42.4325C15.5313 41.855 19.1771 41.1698 20.4349 41.1209C20.6446 41.1111 20.7813 41.2775 21.5196 42.4031ZM98.711 41.4145C100.342 41.6788 102.585 42.1976 104.189 42.6772C104.9 42.9023 105.52 43.0981 105.565 43.1275C105.602 43.1568 105.346 43.6463 104.982 44.2238C103.697 46.2891 102.001 48.5404 100.251 50.5373L99.4857 51.3986L98.3008 51.0463C95.9948 50.3709 92.7956 49.7346 90.3985 49.4801C90.0521 49.441 89.7787 49.3822 89.7787 49.3431C89.7787 49.3137 90.0704 48.9711 90.4258 48.5992C91.9297 47.0134 94.2813 43.9203 95.5756 41.806L96.0222 41.0915L96.7513 41.1502C97.1524 41.1894 98.0365 41.3068 98.711 41.4145ZM40.2592 44.5957C42.4193 45.6822 45.3451 47.591 47.4597 49.2941C48.3529 50.0185 48.5534 50.2338 49.0912 51.0756C50.5586 53.3563 52.2995 55.5881 54.3776 57.8296C55.2435 58.7595 55.8177 59.4153 55.6628 59.288C53.1745 57.2521 49.8204 55.0888 47.2045 53.8261L45.9102 53.1997L44.4245 51.6433C42.2006 49.3333 40.7149 47.4637 39.1927 45.0558C38.737 44.351 38.3724 43.7441 38.3724 43.7148C38.3724 43.656 38.8464 43.8812 40.2592 44.5957ZM77.9206 44.2629C76.3711 46.7296 74.7032 48.8928 72.5065 51.2518L70.7748 53.1214L68.9701 54.0611C67.9675 54.5798 66.6459 55.3238 66.017 55.7055C64.9506 56.3613 62.2435 58.2603 61.2045 59.0825C60.9037 59.3174 61.0586 59.1314 61.6602 58.5148C63.5196 56.6158 65.8894 53.6206 67.5118 51.1343C68.2227 50.038 68.3776 49.8619 69.2618 49.1571C71.1576 47.6399 72.4427 46.7589 74.4571 45.5648C75.487 44.9579 78.0573 43.656 78.2305 43.656C78.267 43.656 78.1302 43.9301 77.9206 44.2629ZM53.8855 55.5489C55.5808 57.5261 58.0782 60.9912 57.9323 61.1576C57.8138 61.2751 55.3529 58.4071 53.9219 56.4788C53.1472 55.451 51.8164 53.5031 51.6433 53.1507C51.5157 52.906 52.819 54.296 53.8855 55.5489ZM64.3399 54.1492C63.4193 55.5587 62.5717 56.7137 61.3776 58.1918C60.293 59.5425 58.6068 61.3828 58.6068 61.2261C58.6068 61.0793 60.2383 58.7105 61.2409 57.3989C62.2526 56.0677 64.8959 53.0137 64.9597 53.092C64.987 53.1116 64.7045 53.5912 64.3399 54.1492Z" fill="#0F98AC"/>
</svg>
