<svg width="16" height="15" viewBox="0 0 16 15" fill="none" xmlns="http://www.w3.org/2000/svg">
<path d="M13.0571 2.81848C12.7378 2.50358 12.3588 2.25378 11.9417 2.08335C11.5245 1.91292 11.0774 1.8252 10.6258 1.8252C10.1743 1.8252 9.72712 1.91292 9.30996 2.08335C8.8928 2.25378 8.51378 2.50358 8.19456 2.81848L7.53206 3.47171L6.86956 2.81848C6.22475 2.1827 5.3502 1.82552 4.43831 1.82552C3.52641 1.82552 2.65186 2.1827 2.00706 2.81848C1.36225 3.45426 1 4.31656 1 5.21569C1 6.11482 1.36225 6.97712 2.00706 7.6129L2.66956 8.26613L7.53206 13.0605L12.3946 8.26613L13.0571 7.6129C13.3764 7.29815 13.6298 6.92444 13.8026 6.51312C13.9755 6.10179 14.0645 5.66092 14.0645 5.21569C14.0645 4.77046 13.9755 4.32959 13.8026 3.91827C13.6298 3.50695 13.3764 3.13324 13.0571 2.81848V2.81848Z" stroke="#F24C4C" stroke-width="2" stroke-linecap="round" stroke-linejoin="round"/>
</svg>
