<svg width="49" height="49" viewBox="0 0 49 49" fill="none" xmlns="http://www.w3.org/2000/svg">
<path d="M46.5802 6.28427C44.665 7.63523 42.5444 8.66849 40.3002 9.34427C39.0957 7.95929 37.4949 6.97766 35.7143 6.53212C33.9337 6.08659 32.0592 6.19866 30.3444 6.85318C28.6295 7.50769 27.1571 8.67307 26.1262 10.1917C25.0952 11.7103 24.5556 13.5089 24.5802 15.3443V17.3443C21.0655 17.4354 17.5827 16.6559 14.4422 15.0752C11.3017 13.4944 8.60083 11.1615 6.5802 8.28427C6.5802 8.28427 -1.4198 26.2843 16.5802 34.2843C12.4613 37.0802 7.55451 38.4821 2.5802 38.2843C20.5802 48.2843 42.5802 38.2843 42.5802 15.2843C42.5784 14.7272 42.5248 14.1715 42.4202 13.6243C44.4614 11.6113 45.9019 9.0697 46.5802 6.28427V6.28427Z" stroke="white" stroke-width="2" stroke-linecap="round" stroke-linejoin="round"/>
</svg>
